<svg xmlns="http://www.w3.org/2000/svg" xmlns:xlink="http://www.w3.org/1999/xlink" contentStyleType="text/css" height="1231px" preserveAspectRatio="none" style="width:901px;height:1231px;background:#FFFFFF;" version="1.1" viewBox="0 0 901 1231" width="901px" zoomAndPan="magnify"><defs/><g><rect fill="#F1F1F1" height="36.2969" rx="12.5" ry="12.5" style="stroke:#181818;stroke-width:1.5;" width="76.0137" x="10" y="596.6797"/><text fill="#000000" font-family="sans-serif" font-size="14" lengthAdjust="spacing" textLength="56.0137" x="20" y="619.6748">Polyglot</text><rect fill="#F1F1F1" height="52.5938" rx="12.5" ry="12.5" style="stroke:#181818;stroke-width:1.5;" width="201.5283" x="136.0137" y="228.2266"/><text fill="#000000" font-family="sans-serif" font-size="14" font-weight="bold" lengthAdjust="spacing" textLength="32.0195" x="146.0137" y="251.2217">EDA</text><text fill="#000000" font-family="sans-serif" font-size="14" lengthAdjust="spacing" textLength="181.5283" x="146.0137" y="267.5186">Event Driven Architecture</text><rect fill="#F1F1F1" height="36.2969" rx="12.5" ry="12.5" style="stroke:#181818;stroke-width:1.5;" width="253.5977" x="387.542" y="20"/><text fill="#000000" font-family="sans-serif" font-size="14" lengthAdjust="spacing" textLength="233.5977" x="397.542" y="42.9951">Everything talks to the Event bus</text><path d="M337.542,254.5234 L347.542,254.5234 C362.542,254.5234 362.542,38.1484 377.542,38.1484 L387.542,38.1484 " fill="none" style="stroke:#181818;stroke-width:1.0;"/><rect fill="#F1F1F1" height="68.8906" rx="12.5" ry="12.5" style="stroke:#181818;stroke-width:1.5;" width="234.9902" x="387.542" y="76.2969"/><text fill="#000000" font-family="sans-serif" font-size="14" lengthAdjust="spacing" textLength="191.9053" x="401.9922" y="99.292">Direction communication is</text><text fill="#000000" font-family="sans-serif" font-size="14" lengthAdjust="spacing" textLength="210.54" x="397.542" y="115.5889">replaced with subscribing and</text><text fill="#000000" font-family="sans-serif" font-size="14" lengthAdjust="spacing" textLength="123.8604" x="397.542" y="131.8857">publishing events</text><path d="M337.542,254.5234 L347.542,254.5234 C362.542,254.5234 362.542,110.7422 377.542,110.7422 L387.542,110.7422 " fill="none" style="stroke:#181818;stroke-width:1.0;"/><rect fill="#F1F1F1" height="68.8906" rx="12.5" ry="12.5" style="stroke:#181818;stroke-width:1.5;" width="208.5146" x="387.542" y="165.1875"/><text fill="#000000" font-family="sans-serif" font-size="14" lengthAdjust="spacing" textLength="188.5146" x="397.542" y="188.1826">No DNS needed, only need</text><text fill="#000000" font-family="sans-serif" font-size="14" lengthAdjust="spacing" textLength="141.2715" x="397.542" y="204.4795">to resolve the event</text><text fill="#000000" font-family="sans-serif" font-size="14" lengthAdjust="spacing" textLength="79.6523" x="397.542" y="220.7764">bus service</text><path d="M337.542,254.5234 L347.542,254.5234 C362.542,254.5234 362.542,199.6328 377.542,199.6328 L387.542,199.6328 " fill="none" style="stroke:#181818;stroke-width:1.0;"/><rect fill="#90EE90" height="36.2969" rx="12.5" ry="12.5" style="stroke:#181818;stroke-width:1.5;" width="157.7305" x="387.542" y="254.0781"/><text fill="#000000" font-family="sans-serif" font-size="14" lengthAdjust="spacing" textLength="137.7305" x="397.542" y="277.0732">Ideal for production</text><path d="M337.542,254.5234 L347.542,254.5234 C362.542,254.5234 362.542,272.2266 377.542,272.2266 L387.542,272.2266 " fill="none" style="stroke:#181818;stroke-width:1.0;"/><rect fill="#FFB6C1" height="68.8906" rx="12.5" ry="12.5" style="stroke:#181818;stroke-width:1.5;" width="133.1006" x="387.542" y="310.375"/><text fill="#000000" font-family="sans-serif" font-size="14" lengthAdjust="spacing" textLength="113.1006" x="397.542" y="333.3701">sources timeout</text><text fill="#000000" font-family="sans-serif" font-size="14" lengthAdjust="spacing" textLength="105.834" x="397.542" y="349.667">network failure</text><text fill="#000000" font-family="sans-serif" font-size="14" lengthAdjust="spacing" textLength="95.6279" x="397.542" y="365.9639">replay events</text><text fill="#000000" font-family="sans-serif" font-size="14" lengthAdjust="spacing" textLength="211.0459" x="573.6426" y="331.3701">atleast once event generation</text><path d="M520.6426,344.8203 L530.6426,344.8203 C545.6426,344.8203 545.6426,326.5234 560.6426,326.5234 L570.6426,326.5234 " fill="none" style="stroke:#181818;stroke-width:1.0;"/><text fill="#000000" font-family="sans-serif" font-size="14" lengthAdjust="spacing" textLength="189.7178" x="573.6426" y="349.667">duplicate event generation</text><path d="M520.6426,344.8203 L530.6426,344.8203 C545.6426,344.8203 545.6426,344.8203 560.6426,344.8203 L570.6426,344.8203 " fill="none" style="stroke:#181818;stroke-width:1.0;"/><text fill="#000000" font-family="sans-serif" font-size="14" lengthAdjust="spacing" textLength="281.1553" x="573.6426" y="367.9639">idempotency requirement in consumers</text><path d="M520.6426,344.8203 L530.6426,344.8203 C545.6426,344.8203 545.6426,363.1172 560.6426,363.1172 L570.6426,363.1172 " fill="none" style="stroke:#181818;stroke-width:1.0;"/><path d="M337.542,254.5234 L347.542,254.5234 C362.542,254.5234 362.542,344.8203 377.542,344.8203 L387.542,344.8203 " fill="none" style="stroke:#181818;stroke-width:1.0;"/><rect fill="#FFB6C1" height="36.2969" rx="12.5" ry="12.5" style="stroke:#181818;stroke-width:1.5;" width="122.5322" x="387.542" y="426.0078"/><text fill="#000000" font-family="sans-serif" font-size="14" font-weight="bold" lengthAdjust="spacing" textLength="102.5322" x="397.542" y="449.0029">Idempotency</text><text fill="#000000" font-family="sans-serif" font-size="14" lengthAdjust="spacing" textLength="128.1875" x="563.0742" y="430.7061">idempotency keys</text><text fill="#000000" font-family="sans-serif" font-size="14" lengthAdjust="spacing" textLength="35.4033" x="744.2617" y="403.2607">UUID</text><path d="M691.2617,425.8594 L701.2617,425.8594 C716.2617,425.8594 716.2617,398.4141 731.2617,398.4141 L741.2617,398.4141 " fill="none" style="stroke:#181818;stroke-width:1.0;"/><text fill="#000000" font-family="sans-serif" font-size="14" lengthAdjust="spacing" textLength="14.9092" x="744.2617" y="421.5576">ID</text><path d="M691.2617,425.8594 L701.2617,425.8594 C716.2617,425.8594 716.2617,416.7109 731.2617,416.7109 L741.2617,416.7109 " fill="none" style="stroke:#181818;stroke-width:1.0;"/><text fill="#000000" font-family="sans-serif" font-size="14" lengthAdjust="spacing" textLength="78.5791" x="744.2617" y="439.8545">Timestamp</text><path d="M691.2617,425.8594 L701.2617,425.8594 C716.2617,425.8594 716.2617,435.0078 731.2617,435.0078 L741.2617,435.0078 " fill="none" style="stroke:#181818;stroke-width:1.0;"/><text fill="#000000" font-family="sans-serif" font-size="14" lengthAdjust="spacing" textLength="139.7197" x="744.2617" y="458.1514">Hash event payload</text><path d="M691.2617,425.8594 L701.2617,425.8594 C716.2617,425.8594 716.2617,453.3047 731.2617,453.3047 L741.2617,453.3047 " fill="none" style="stroke:#181818;stroke-width:1.0;"/><path d="M510.0742,444.1563 L520.0742,444.1563 C535.0742,444.1563 535.0742,425.8594 550.0742,425.8594 L560.0742,425.8594 " fill="none" style="stroke:#181818;stroke-width:1.0;"/><text fill="#000000" font-family="sans-serif" font-size="14" lengthAdjust="spacing" textLength="326.498" x="563.0742" y="476.4482">Separate store for idemptency keys and result</text><path d="M510.0742,444.1563 L520.0742,444.1563 C535.0742,444.1563 535.0742,471.6016 550.0742,471.6016 L560.0742,471.6016 " fill="none" style="stroke:#181818;stroke-width:1.0;"/><text fill="#000000" font-family="sans-serif" font-size="14" lengthAdjust="spacing" textLength="102.9697" x="563.0742" y="494.7451">memoization ?</text><path d="M510.0742,444.1563 L520.0742,444.1563 C535.0742,444.1563 535.0742,489.8984 550.0742,489.8984 L560.0742,489.8984 " fill="none" style="stroke:#181818;stroke-width:1.0;"/><path d="M337.542,254.5234 L347.542,254.5234 C362.542,254.5234 362.542,444.1563 377.542,444.1563 L387.542,444.1563 " fill="none" style="stroke:#181818;stroke-width:1.0;"/><path d="M86.0137,614.8281 L96.0137,614.8281 C111.0137,614.8281 111.0137,254.5234 126.0137,254.5234 L136.0137,254.5234 " fill="none" style="stroke:#181818;stroke-width:1.0;"/><rect fill="#F1F1F1" height="36.2969" rx="12.5" ry="12.5" style="stroke:#181818;stroke-width:1.5;" width="77.6748" x="136.0137" y="674.9766"/><text fill="#000000" font-family="sans-serif" font-size="14" font-weight="bold" lengthAdjust="spacing" textLength="57.6748" x="146.0137" y="697.9717">Worker</text><rect fill="#F1F1F1" height="36.2969" rx="12.5" ry="12.5" style="stroke:#181818;stroke-width:1.5;" width="95.7969" x="263.6885" y="525.3438"/><text fill="#000000" font-family="sans-serif" font-size="14" lengthAdjust="spacing" textLength="75.7969" x="273.6885" y="548.3389">Hub Spoke</text><rect fill="#F1F1F1" height="68.8906" rx="12.5" ry="12.5" style="stroke:#181818;stroke-width:1.5;" width="206.334" x="409.4854" y="509.0469"/><text fill="#000000" font-family="sans-serif" font-size="14" lengthAdjust="spacing" textLength="160.5488" x="423.9355" y="532.042">DNS for Hub to resolve</text><text fill="#000000" font-family="sans-serif" font-size="14" lengthAdjust="spacing" textLength="186.334" x="419.4854" y="548.3389">workers and communicate</text><text fill="#000000" font-family="sans-serif" font-size="14" lengthAdjust="spacing" textLength="169.9209" x="419.4854" y="564.6357">along hub-worker edges</text><path d="M359.4854,543.4922 L369.4854,543.4922 C384.4854,543.4922 384.4854,543.4922 399.4854,543.4922 L409.4854,543.4922 " fill="none" style="stroke:#181818;stroke-width:1.0;"/><path d="M213.6885,693.125 L223.6885,693.125 C238.6885,693.125 238.6885,543.4922 253.6885,543.4922 L263.6885,543.4922 " fill="none" style="stroke:#181818;stroke-width:1.0;"/><rect fill="#F1F1F1" height="36.2969" rx="12.5" ry="12.5" style="stroke:#181818;stroke-width:1.5;" width="130.9814" x="263.6885" y="606.0859"/><text fill="#000000" font-family="sans-serif" font-size="14" lengthAdjust="spacing" textLength="110.9814" x="273.6885" y="629.0811">inter-connected</text><rect fill="#F1F1F1" height="52.5938" rx="12.5" ry="12.5" style="stroke:#181818;stroke-width:1.5;" width="258.9229" x="444.6699" y="597.9375"/><text fill="#000000" font-family="sans-serif" font-size="14" lengthAdjust="spacing" textLength="181.4941" x="459.1201" y="620.9326">DNS for every component</text><text fill="#000000" font-family="sans-serif" font-size="14" lengthAdjust="spacing" textLength="238.9229" x="454.6699" y="637.2295">to resolve every other component</text><path d="M394.6699,624.2344 L404.6699,624.2344 C419.6699,624.2344 419.6699,624.2344 434.6699,624.2344 L444.6699,624.2344 " fill="none" style="stroke:#181818;stroke-width:1.0;"/><path d="M213.6885,693.125 L223.6885,693.125 C238.6885,693.125 238.6885,624.2344 253.6885,624.2344 L263.6885,624.2344 " fill="none" style="stroke:#181818;stroke-width:1.0;"/><rect fill="#90EE90" height="52.5938" rx="12.5" ry="12.5" style="stroke:#181818;stroke-width:1.5;" width="141.3584" x="263.6885" y="670.5313"/><text fill="#000000" font-family="sans-serif" font-size="14" lengthAdjust="spacing" textLength="121.3584" x="273.6885" y="693.5264">Simplest for local</text><text fill="#000000" font-family="sans-serif" font-size="14" lengthAdjust="spacing" textLength="92.3535" x="273.6885" y="709.8232">development</text><text fill="#000000" font-family="sans-serif" font-size="14" lengthAdjust="spacing" textLength="173.3936" x="458.0469" y="692.5264">DNS entries in config file</text><path d="M405.0469,696.8281 L415.0469,696.8281 C430.0469,696.8281 430.0469,687.6797 445.0469,687.6797 L455.0469,687.6797 " fill="none" style="stroke:#181818;stroke-width:1.0;"/><text fill="#000000" font-family="sans-serif" font-size="14" lengthAdjust="spacing" textLength="163.5088" x="458.0469" y="710.8232">avoid EDA bus/brokers.</text><path d="M405.0469,696.8281 L415.0469,696.8281 C430.0469,696.8281 430.0469,705.9766 445.0469,705.9766 L455.0469,705.9766 " fill="none" style="stroke:#181818;stroke-width:1.0;"/><path d="M213.6885,693.125 L223.6885,693.125 C238.6885,693.125 238.6885,696.8281 253.6885,696.8281 L263.6885,696.8281 " fill="none" style="stroke:#181818;stroke-width:1.0;"/><rect fill="#90EE90" height="134.0781" rx="12.5" ry="12.5" style="stroke:#181818;stroke-width:1.5;" width="214.1475" x="263.6885" y="743.125"/><text fill="#000000" font-family="sans-serif" font-size="14" lengthAdjust="spacing" textLength="151.0811" x="273.6885" y="766.1201">Fairly straightforward</text><text fill="#000000" font-family="sans-serif" font-size="14" lengthAdjust="spacing" textLength="117.2021" x="273.6885" y="782.417">evolution to EDA</text><text fill="#000000" font-family="sans-serif" font-size="14" lengthAdjust="spacing" textLength="4.4502" x="273.6885" y="798.7139">&#160;</text><text fill="#000000" font-family="sans-serif" font-size="14" lengthAdjust="spacing" textLength="189.6973" x="273.6885" y="815.0107">Instead of sending payload</text><text fill="#000000" font-family="sans-serif" font-size="14" lengthAdjust="spacing" textLength="178.2539" x="273.6885" y="831.3076">to worker, encapsulate in</text><text fill="#000000" font-family="sans-serif" font-size="14" lengthAdjust="spacing" textLength="186.4912" x="273.6885" y="847.6045">event packet and place on</text><text fill="#000000" font-family="sans-serif" font-size="14" lengthAdjust="spacing" textLength="69.3779" x="273.6885" y="863.9014">event bus</text><path d="M213.6885,693.125 L223.6885,693.125 C238.6885,693.125 238.6885,810.1641 253.6885,810.1641 L263.6885,810.1641 " fill="none" style="stroke:#181818;stroke-width:1.0;"/><path d="M86.0137,614.8281 L96.0137,614.8281 C111.0137,614.8281 111.0137,693.125 126.0137,693.125 L136.0137,693.125 " fill="none" style="stroke:#181818;stroke-width:1.0;"/><rect fill="#F1F1F1" height="36.2969" rx="12.5" ry="12.5" style="stroke:#181818;stroke-width:1.5;" width="130.3457" x="136.0137" y="1035.2813"/><text fill="#000000" font-family="sans-serif" font-size="14" lengthAdjust="spacing" textLength="110.3457" x="146.0137" y="1058.2764">Communication</text><rect fill="#F1F1F1" height="52.5938" rx="12.5" ry="12.5" style="stroke:#181818;stroke-width:1.5;" width="264.4395" x="316.3594" y="897.2031"/><text fill="#000000" font-family="sans-serif" font-size="14" lengthAdjust="spacing" textLength="239.9893" x="330.8096" y="920.1982">Protocol implementation available</text><text fill="#000000" font-family="sans-serif" font-size="14" lengthAdjust="spacing" textLength="180.7217" x="326.3594" y="936.4951">for all languages involved</text><path d="M266.3594,1053.4297 L276.3594,1053.4297 C291.3594,1053.4297 291.3594,923.5 306.3594,923.5 L316.3594,923.5 " fill="none" style="stroke:#181818;stroke-width:1.0;"/><text fill="#000000" font-family="sans-serif" font-size="14" lengthAdjust="spacing" textLength="36.0117" x="319.3594" y="973.792">REST</text><path d="M266.3594,1053.4297 L276.3594,1053.4297 C291.3594,1053.4297 291.3594,968.9453 306.3594,968.9453 L316.3594,968.9453 " fill="none" style="stroke:#181818;stroke-width:1.0;"/><text fill="#000000" font-family="sans-serif" font-size="14" lengthAdjust="spacing" textLength="72.9873" x="319.3594" y="992.0889">JsonRPC &#10004;&#65039;</text><path d="M266.3594,1053.4297 L276.3594,1053.4297 C291.3594,1053.4297 291.3594,987.2422 306.3594,987.2422 L316.3594,987.2422 " fill="none" style="stroke:#181818;stroke-width:1.0;"/><text fill="#000000" font-family="sans-serif" font-size="14" lengthAdjust="spacing" textLength="36.832" x="319.3594" y="1010.3857">gRPC</text><path d="M266.3594,1053.4297 L276.3594,1053.4297 C291.3594,1053.4297 291.3594,1005.5391 306.3594,1005.5391 L316.3594,1005.5391 " fill="none" style="stroke:#181818;stroke-width:1.0;"/><text fill="#000000" font-family="sans-serif" font-size="14" lengthAdjust="spacing" textLength="37.4883" x="319.3594" y="1028.6826">Thrift</text><path d="M266.3594,1053.4297 L276.3594,1053.4297 C291.3594,1053.4297 291.3594,1023.8359 306.3594,1023.8359 L316.3594,1023.8359 " fill="none" style="stroke:#181818;stroke-width:1.0;"/><rect fill="#F1F1F1" height="166.6719" rx="12.5" ry="12.5" style="stroke:#181818;stroke-width:1.5;" width="266.0596" x="316.3594" y="1042.9844"/><text fill="#000000" font-family="sans-serif" font-size="14" lengthAdjust="spacing" textLength="193.457" x="330.8096" y="1065.9795">Since Rust10x already uses</text><text fill="#000000" font-family="sans-serif" font-size="14" lengthAdjust="spacing" textLength="222.9199" x="326.3594" y="1082.2764">JsonRPC, easiest to go with that</text><text fill="#000000" font-family="sans-serif" font-size="14" lengthAdjust="spacing" textLength="4.4502" x="326.3594" y="1098.5732">&#160;</text><text fill="#000000" font-family="sans-serif" font-size="14" lengthAdjust="spacing" textLength="221.915" x="330.8096" y="1114.8701">- Much better development and</text><text fill="#000000" font-family="sans-serif" font-size="14" lengthAdjust="spacing" textLength="230.8018" x="339.71" y="1131.167">debuggability compared to gRPC</text><text fill="#000000" font-family="sans-serif" font-size="14" lengthAdjust="spacing" textLength="166.168" x="330.8096" y="1147.4639">- Better for dev velocity</text><text fill="#000000" font-family="sans-serif" font-size="14" lengthAdjust="spacing" textLength="237.1592" x="330.8096" y="1163.7607">- Rust macros to spit out protobuf</text><text fill="#000000" font-family="sans-serif" font-size="14" lengthAdjust="spacing" textLength="201.1953" x="339.71" y="1180.0576">files is a possibility to evolve</text><text fill="#000000" font-family="sans-serif" font-size="14" lengthAdjust="spacing" textLength="68.0996" x="339.71" y="1196.3545">into gRPC</text><path d="M266.3594,1053.4297 L276.3594,1053.4297 C291.3594,1053.4297 291.3594,1126.3203 306.3594,1126.3203 L316.3594,1126.3203 " fill="none" style="stroke:#181818;stroke-width:1.0;"/><path d="M86.0137,614.8281 L96.0137,614.8281 C111.0137,614.8281 111.0137,1053.4297 126.0137,1053.4297 L136.0137,1053.4297 " fill="none" style="stroke:#181818;stroke-width:1.0;"/><!--SRC=[TLJDRXit4BxpAGRe9Lb4hXK4TQ0SciHo6hjs8bXsUcY3WBiSxHBYabl-oDs-H2yvza7wF7s1la9dI2qa9ErfkUJyVjytyp94wMElhUhb82fOEJEsnaLHLL1L5yjNLVMBlTYXZR3qchxmoZUTZjZ4v96iAg1NFyPEsnQYDDi0qK7i48fNdG9RBM2fFJbfPw5nVP-iRcJ-qm64ny781XKywDX1I7LelAuvehGAn91geqFEW1mqlCWXtpbOlbk3HLIede2pPim_8AW2Zy6P7UPAiXC8AWK2-frkC0Vu-HkZsows7j5-X4k5qi36UHYyKocNUcGrQBlzk0Wk-GQfHTsZIr5OZ0_ERs4ZjM4ySYFZSPNL9v3He0oH2cocMbgqwEMKWcnK6WmZyhy6Mc4_k8Ys6QctNnEXsREXPZnjI3twy6MvnE3bmQsg_YFK5iVinlVtzvVBwNmutL6h999-c2xUoj3jgnpaQ9nK-xXh7AJd5a9q7ZEKETKXKwQJc4acxdrwx9t-lIZXUr5KznCXYhwK2szJ3Ul1RRFMM4R4E4Vc-mFDuY7xb0G7VQ6Gnf5gkbJFYWMWQh4mGz15z3D2pv8mKNsH05dM76jmbdezrbHvSYGjVp3uMbABjUu7G-3bUCOrf2-XoDcuePyy20FEIBzUax0AdHlTmaORd0IqSre13IDFqxUrTzpgYVWwuHkfFGr1Y5xoBQLza5u9t3cJCiJK18KHujA6Y5A1sz14MCMJjUSo3q_1wWbLrSY1s69IgJ8niTviCMQeyzYIiASdgkz5Pl7yUCRB0bXv5rtZ36HK6812kzpHyCYQkcMOf35Wf6sJR3CSEqPSPQW-mUt5-gwSheApjwjp-FlFp__yzKUvQ-cYdEuwhpUnf5rh7hlR5EByz3SAxwdl4LAWw68VXHgLGJDHr7lhoXQAdOn2m0nkKjD1ZP740aVibTK4G7TrQbjPQwDZ4Opqj8Gu51T44LuNPswF0W27QCYMdxWkw6NZNTwROT2q9rBa7HHTdJOv0qiXyAAKCBWGz3uLsME69nkHcaj68k0bSJhjTB4YEEFzpJNbzO41dvyyFNtwxEJiqLf67beuFOFvV35_lfYVmVtTEV3pO_7eXzKrb8K7IfEcT9r5z5XS4MLKkUKjk83t0zghvO_J1LpOdVRECaRYwiFDmU2xPxFNcZDwgWG-t8WbRYIj0l9e76jmGTdVp9wBwpt_2nAWE7SKru_qjluN]--></g></svg>