<svg xmlns="http://www.w3.org/2000/svg" xmlns:xlink="http://www.w3.org/1999/xlink" contentStyleType="text/css" height="474px" preserveAspectRatio="none" style="width:470px;height:474px;background:#FFFFFF;" version="1.1" viewBox="0 0 470 474" width="470px" zoomAndPan="magnify"><defs/><g><rect fill="none" height="20.9531" style="stroke:none;stroke-width:1.0;" width="437.145" x="15" y="12.7451"/><rect fill="#FFD700" height="450.1992" style="stroke:#FFD700;stroke-width:1.0;" width="54.9736" x="15" y="12.7451"/><ellipse cx="42.9868" cy="48.6982" fill="#222222" rx="10" ry="10" style="stroke:#222222;stroke-width:1.0;"/><ellipse cx="42.9868" cy="451.9443" fill="none" rx="11" ry="11" style="stroke:#222222;stroke-width:1.0;"/><ellipse cx="42.9868" cy="451.9443" fill="#222222" rx="6" ry="6" style="stroke:#222222;stroke-width:1.0;"/><line style="stroke:#000000;stroke-width:1.5;" x1="15" x2="15" y1="12.7451" y2="462.9443"/><rect fill="#FFA500" height="450.1992" style="stroke:#FFA500;stroke-width:1.0;" width="176.668" x="69.9736" y="12.7451"/><rect fill="#F1F1F1" height="33.9688" rx="12.5" ry="12.5" style="stroke:#181818;stroke-width:0.5;" width="136.8066" x="102.9736" y="78.6982"/><text fill="#000000" font-family="sans-serif" font-size="12" lengthAdjust="spacing" textLength="116.8066" x="112.9736" y="99.8369">init ServiceRegistry</text><polygon fill="#F1F1F1" points="123.1123,132.667,219.6416,132.667,231.6416,144.667,219.6416,156.667,123.1123,156.667,111.1123,144.667,123.1123,132.667" style="stroke:#181818;stroke-width:0.5;"/><text fill="#000000" font-family="sans-serif" font-size="11" lengthAdjust="spacing" textLength="19.0083" x="175.377" y="166.8774">yes</text><text fill="#000000" font-family="sans-serif" font-size="11" lengthAdjust="spacing" textLength="96.5293" x="123.1123" y="148.4751">feature=dev-utils</text><polygon fill="#F1F1F1" points="171.377,342.9756,183.377,354.9756,171.377,366.9756,159.377,354.9756,171.377,342.9756" style="stroke:#181818;stroke-width:0.5;"/><rect fill="#F1F1F1" height="33.9688" rx="12.5" ry="12.5" style="stroke:#181818;stroke-width:0.5;" width="49.9473" x="146.4033" y="386.9756"/><text fill="#000000" font-family="sans-serif" font-size="12" lengthAdjust="spacing" textLength="29.9473" x="156.4033" y="408.1143">done</text><line style="stroke:#000000;stroke-width:1.5;" x1="69.9736" x2="69.9736" y1="12.7451" y2="462.9443"/><rect fill="#90EE90" height="450.1992" style="stroke:#90EE90;stroke-width:1.0;" width="203.6426" x="246.6416" y="12.7451"/><rect fill="#F1F1F1" height="33.9688" rx="12.5" ry="12.5" style="stroke:#181818;stroke-width:0.5;" width="193.6426" x="252.6416" y="181.0693"/><text fill="#000000" font-family="sans-serif" font-size="12" lengthAdjust="spacing" textLength="173.6426" x="262.6416" y="202.208">read all SERVICE_RESOLVE_*</text><rect fill="#F1F1F1" height="33.9688" rx="12.5" ry="12.5" style="stroke:#181818;stroke-width:0.5;" width="151.9473" x="273.4893" y="235.0381"/><text fill="#000000" font-family="sans-serif" font-size="12" lengthAdjust="spacing" textLength="131.9473" x="283.4893" y="256.1768">init (name, host, port)</text><rect fill="#F1F1F1" height="33.9688" rx="12.5" ry="12.5" style="stroke:#181818;stroke-width:0.5;" width="83.457" x="307.7344" y="289.0068"/><text fill="#000000" font-family="sans-serif" font-size="12" lengthAdjust="spacing" textLength="63.457" x="317.7344" y="310.1455">add to self</text><line style="stroke:#000000;stroke-width:1.5;" x1="246.6416" x2="246.6416" y1="12.7451" y2="462.9443"/><line style="stroke:#000000;stroke-width:1.5;" x1="450.2842" x2="450.2842" y1="12.7451" y2="462.9443"/><line style="stroke:#181818;stroke-width:1.0;" x1="111.1123" x2="88.9736" y1="144.667" y2="144.667"/><polygon fill="#181818" points="84.9736,242.0225,88.9736,252.0225,92.9736,242.0225,88.9736,246.0225" style="stroke:#181818;stroke-width:1.0;"/><line style="stroke:#181818;stroke-width:1.0;" x1="88.9736" x2="88.9736" y1="144.667" y2="354.9756"/><line style="stroke:#181818;stroke-width:1.0;" x1="88.9736" x2="159.377" y1="354.9756" y2="354.9756"/><polygon fill="#181818" points="149.377,350.9756,159.377,354.9756,149.377,358.9756,153.377,354.9756" style="stroke:#181818;stroke-width:1.0;"/><line style="stroke:#181818;stroke-width:1.0;" x1="171.377" x2="171.377" y1="112.667" y2="132.667"/><polygon fill="#181818" points="167.377,122.667,171.377,132.667,175.377,122.667,171.377,126.667" style="stroke:#181818;stroke-width:1.0;"/><line style="stroke:#181818;stroke-width:1.0;" x1="171.377" x2="171.377" y1="366.9756" y2="386.9756"/><polygon fill="#181818" points="167.377,376.9756,171.377,386.9756,175.377,376.9756,171.377,380.9756" style="stroke:#181818;stroke-width:1.0;"/><line style="stroke:#181818;stroke-width:1.0;" x1="349.4629" x2="349.4629" y1="215.0381" y2="235.0381"/><polygon fill="#181818" points="345.4629,225.0381,349.4629,235.0381,353.4629,225.0381,349.4629,229.0381" style="stroke:#181818;stroke-width:1.0;"/><line style="stroke:#181818;stroke-width:1.0;" x1="349.4629" x2="349.4629" y1="269.0068" y2="289.0068"/><polygon fill="#181818" points="345.4629,279.0068,349.4629,289.0068,353.4629,279.0068,349.4629,283.0068" style="stroke:#181818;stroke-width:1.0;"/><line style="stroke:#181818;stroke-width:1.0;" x1="42.9868" x2="42.9868" y1="58.6982" y2="63.6982"/><line style="stroke:#181818;stroke-width:1.0;" x1="42.9868" x2="171.377" y1="63.6982" y2="63.6982"/><line style="stroke:#181818;stroke-width:1.0;" x1="171.377" x2="171.377" y1="63.6982" y2="78.6982"/><polygon fill="#181818" points="167.377,68.6982,171.377,78.6982,175.377,68.6982,171.377,72.6982" style="stroke:#181818;stroke-width:1.0;"/><line style="stroke:#181818;stroke-width:1.0;" x1="171.377" x2="171.377" y1="156.667" y2="168.8682"/><line style="stroke:#181818;stroke-width:1.0;" x1="171.377" x2="349.4629" y1="168.8682" y2="168.8682"/><line style="stroke:#181818;stroke-width:1.0;" x1="349.4629" x2="349.4629" y1="168.8682" y2="181.0693"/><polygon fill="#181818" points="345.4629,171.0693,349.4629,181.0693,353.4629,171.0693,349.4629,175.0693" style="stroke:#181818;stroke-width:1.0;"/><line style="stroke:#181818;stroke-width:1.0;" x1="349.4629" x2="349.4629" y1="322.9756" y2="330.7744"/><line style="stroke:#181818;stroke-width:1.0;" x1="349.4629" x2="171.377" y1="330.7744" y2="330.7744"/><line style="stroke:#181818;stroke-width:1.0;" x1="171.377" x2="171.377" y1="330.7744" y2="342.9756"/><polygon fill="#181818" points="167.377,332.9756,171.377,342.9756,175.377,332.9756,171.377,336.9756" style="stroke:#181818;stroke-width:1.0;"/><line style="stroke:#181818;stroke-width:1.0;" x1="171.377" x2="171.377" y1="420.9443" y2="425.9443"/><line style="stroke:#181818;stroke-width:1.0;" x1="171.377" x2="42.9868" y1="425.9443" y2="425.9443"/><line style="stroke:#181818;stroke-width:1.0;" x1="42.9868" x2="42.9868" y1="425.9443" y2="440.9443"/><polygon fill="#181818" points="38.9868,430.9443,42.9868,440.9443,46.9868,430.9443,42.9868,434.9443" style="stroke:#181818;stroke-width:1.0;"/><text fill="#000000" font-family="sans-serif" font-size="18" lengthAdjust="spacing" textLength="44.9736" x="20" y="29.4531">main</text><text fill="#000000" font-family="sans-serif" font-size="18" lengthAdjust="spacing" textLength="65.1445" x="125.7354" y="29.4531">lib-web</text><text fill="#000000" font-family="sans-serif" font-size="18" lengthAdjust="spacing" textLength="141.0205" x="277.9526" y="29.4531">ServiceRegistry</text><!--SRC=[PO_D2i8m48JlUOe5Bwte2xHuaXu4GMYXLubccYx4H99L4VBmLX3nvpYxy-tiv9aDpkIJPfzLdeMelKLsV5ZUS7XE7DjHR0HyxX2lV4GBoqdYFIlrufBeA9DwOnLx5lhnrue7AWPekKIi3AxBYx1B9Sa8JyKTgPnk_8LK4TgGTewwfkqtwsRVDjrkspVxUVqAAhm-OK5ZIBAWSuXIJXjj34cW13VK2jxmyFMX2HxrHuDmVW00]--></g></svg>