<svg xmlns="http://www.w3.org/2000/svg" xmlns:xlink="http://www.w3.org/1999/xlink" contentStyleType="text/css" height="1363px" preserveAspectRatio="none" style="width:1217px;height:1363px;background:#FFFFFF;" version="1.1" viewBox="0 0 1217 1363" width="1217px" zoomAndPan="magnify"><title>|Color| Type |</title><defs/><g><text fill="#000000" font-family="sans-serif" font-size="14" font-weight="bold" lengthAdjust="spacing" textLength="41.2139" x="504.4489" y="24.9951">Color</text><text fill="#000000" font-family="sans-serif" font-size="14" font-weight="bold" lengthAdjust="spacing" textLength="38.1924" x="550.5368" y="24.9951">Type</text><rect fill="#FFFF00" height="16.2969" style="stroke:none;stroke-width:1.0;" width="41.2139" x="504.4489" y="28.2969"/><text fill="#000000" font-family="sans-serif" font-size="14" font-weight="bold" lengthAdjust="spacing" textLength="4.874" x="504.4489" y="41.292">&#160;</text><text fill="#000000" font-family="sans-serif" font-size="14" font-weight="bold" lengthAdjust="spacing" textLength="112.3691" x="550.5368" y="41.292">Authenticated</text><rect fill="#FFA500" height="16.2969" style="stroke:none;stroke-width:1.0;" width="41.2139" x="504.4489" y="44.5938"/><text fill="#000000" font-family="sans-serif" font-size="14" font-weight="bold" lengthAdjust="spacing" textLength="4.874" x="504.4489" y="57.5889">&#160;</text><text fill="#000000" font-family="sans-serif" font-size="14" font-weight="bold" lengthAdjust="spacing" textLength="80.6436" x="550.5368" y="57.5889">RPC Chain</text><rect fill="#008000" height="16.2969" style="stroke:none;stroke-width:1.0;" width="41.2139" x="504.4489" y="60.8906"/><text fill="#000000" font-family="sans-serif" font-size="14" font-weight="bold" lengthAdjust="spacing" textLength="4.874" x="504.4489" y="73.8857">&#160;</text><text fill="#000000" font-family="sans-serif" font-size="14" font-weight="bold" lengthAdjust="spacing" textLength="148.5449" x="550.5368" y="73.8857">Non Authenticated</text><line style="stroke:#000000;stroke-width:1.0;" x1="504.4489" x2="699.0817" y1="12" y2="12"/><line style="stroke:#000000;stroke-width:1.0;" x1="504.4489" x2="699.0817" y1="28.2969" y2="28.2969"/><line style="stroke:#000000;stroke-width:1.0;" x1="504.4489" x2="699.0817" y1="44.5938" y2="44.5938"/><line style="stroke:#000000;stroke-width:1.0;" x1="504.4489" x2="699.0817" y1="60.8906" y2="60.8906"/><line style="stroke:#000000;stroke-width:1.0;" x1="504.4489" x2="699.0817" y1="77.1875" y2="77.1875"/><line style="stroke:#000000;stroke-width:1.0;" x1="504.4489" x2="504.4489" y1="12" y2="77.1875"/><line style="stroke:#000000;stroke-width:1.0;" x1="545.6627" x2="545.6627" y1="12" y2="77.1875"/><line style="stroke:#000000;stroke-width:1.0;" x1="699.0817" x2="699.0817" y1="12" y2="77.1875"/><text fill="#000000" font-family="sans-serif" font-size="14" font-weight="bold" lengthAdjust="spacing" textLength="4.874" x="599.3283" y="92.1826">&#160;</text><!--cluster Service 1--><g id="cluster_Service 1"><rect fill="#008000" height="132.3" rx="2.5" ry="2.5" style="stroke:#181818;stroke-width:1.0;" width="206" x="763" y="992.0644"/><path d="M845.8164,992.0644 L845.8164,1001.3613 L835.8164,1011.3613 L763,1011.3613 " fill="none" style="stroke:#181818;stroke-width:1.0;"/><text fill="#000000" font-family="sans-serif" font-size="14" font-weight="bold" lengthAdjust="spacing" textLength="72.8164" x="766" y="1006.0595">Service 1</text></g><!--cluster Service 2--><g id="cluster_Service 2"><rect fill="#008000" height="132.3" rx="2.5" ry="2.5" style="stroke:#181818;stroke-width:1.0;" width="206" x="763" y="1205.6544"/><path d="M845.8164,1205.6544 L845.8164,1214.9513 L835.8164,1224.9513 L763,1224.9513 " fill="none" style="stroke:#181818;stroke-width:1.0;"/><text fill="#000000" font-family="sans-serif" font-size="14" font-weight="bold" lengthAdjust="spacing" textLength="72.8164" x="766" y="1219.6495">Service 2</text></g><!--cluster API Gateway--><g id="cluster_API Gateway"><rect fill="#FFFF00" height="984.27" rx="2.5" ry="2.5" style="stroke:#181818;stroke-width:1.0;" width="732" x="7" y="372.9344"/><rect fill="#FFFF00" height="10" style="stroke:#181818;stroke-width:1.0;" width="15" x="719" y="377.9344"/><rect fill="#FFFF00" height="2" style="stroke:#181818;stroke-width:1.0;" width="4" x="717" y="379.9344"/><rect fill="#FFFF00" height="2" style="stroke:#181818;stroke-width:1.0;" width="4" x="717" y="383.9344"/><text fill="#000000" font-family="sans-serif" font-size="14" font-weight="bold" lengthAdjust="spacing" textLength="99.8115" x="323.0942" y="398.9295">API Gateway</text></g><!--cluster rpc_remote--><g id="cluster_rpc_remote"><rect fill="#FFA500" height="148.59" rx="2.5" ry="2.5" style="stroke:#181818;stroke-width:1.0;" width="295" x="211" y="762.1744"/><rect fill="#FFA500" height="10" style="stroke:#181818;stroke-width:1.0;" width="15" x="486" y="767.1744"/><rect fill="#FFA500" height="2" style="stroke:#181818;stroke-width:1.0;" width="4" x="484" y="769.1744"/><rect fill="#FFA500" height="2" style="stroke:#181818;stroke-width:1.0;" width="4" x="484" y="773.1744"/><text fill="#000000" font-family="sans-serif" font-size="14" font-weight="bold" lengthAdjust="spacing" textLength="64.832" x="250.4888" y="788.1695">/api/rpc/</text><text fill="#000000" font-family="sans-serif" font-size="14" font-weight="bold" lengthAdjust="spacing" textLength="141.4424" x="325.0688" y="788.1695">service  /  method</text></g><!--cluster Web Client--><g id="cluster_Web Client"><rect fill="#FFA500" height="164.89" rx="2.5" ry="2.5" style="stroke:#181818;stroke-width:1.0;" width="247" x="460" y="975.7644"/><rect fill="#FFA500" height="10" style="stroke:#181818;stroke-width:1.0;" width="15" x="687" y="980.7644"/><rect fill="#FFA500" height="2" style="stroke:#181818;stroke-width:1.0;" width="4" x="685" y="982.7644"/><rect fill="#FFA500" height="2" style="stroke:#181818;stroke-width:1.0;" width="4" x="685" y="986.7644"/><text fill="#000000" font-family="sans-serif" font-size="14" font-weight="bold" lengthAdjust="spacing" textLength="85.8594" x="540.5703" y="1001.7595">Web Client</text></g><!--cluster DB--><g id="cluster_DB"><path d="M755,216.7844 C755,206.7844 965.5,206.7844 965.5,206.7844 C965.5,206.7844 1176,206.7844 1176,216.7844 L1176,442.0744 C1176,452.0744 965.5,452.0744 965.5,452.0744 C965.5,452.0744 755,452.0744 755,442.0744 L755,216.7844 " fill="none" style="stroke:#181818;stroke-width:1.0;"/><path d="M755,216.7844 C755,226.7844 965.5,226.7844 965.5,226.7844 C965.5,226.7844 1176,226.7844 1176,216.7844 " fill="none" style="stroke:#181818;stroke-width:1.0;"/><text fill="#000000" font-family="sans-serif" font-size="14" font-weight="bold" lengthAdjust="spacing" textLength="22.292" x="954.354" y="241.7795">DB</text></g><!--cluster Auth Tables--><g id="cluster_Auth Tables"><path d="M789.5,287.7844 L884.4805,287.7844 A3.75,3.75 0 0 1 886.9805,290.2844 L893.9805,310.0812 L1141.5,310.0812 A2.5,2.5 0 0 1 1144,312.5812 L1144,417.5744 A2.5,2.5 0 0 1 1141.5,420.0744 L789.5,420.0744 A2.5,2.5 0 0 1 787,417.5744 L787,290.2844 A2.5,2.5 0 0 1 789.5,287.7844 " fill="none" style="stroke:#000000;stroke-width:1.5;"/><line style="stroke:#000000;stroke-width:1.5;" x1="787" x2="893.9805" y1="310.0812" y2="310.0812"/><text fill="#000000" font-family="sans-serif" font-size="14" font-weight="bold" lengthAdjust="spacing" textLength="93.9805" x="791" y="302.7795">Auth Tables</text></g><!--entity web worker 1--><g id="elem_web worker 1"><rect fill="#90EE90" height="46.2969" rx="2.5" ry="2.5" style="stroke:#181818;stroke-width:0.5;" width="135.0059" x="787.5" y="1054.0644"/><rect fill="#90EE90" height="10" style="stroke:#181818;stroke-width:0.5;" width="15" x="902.5059" y="1059.0644"/><rect fill="#90EE90" height="2" style="stroke:#181818;stroke-width:0.5;" width="4" x="900.5059" y="1061.0644"/><rect fill="#90EE90" height="2" style="stroke:#181818;stroke-width:0.5;" width="4" x="900.5059" y="1065.0644"/><text fill="#000000" font-family="sans-serif" font-size="14" lengthAdjust="spacing" textLength="95.0059" x="802.5" y="1087.0595">web worker 1</text></g><!--entity web worker 2--><g id="elem_web worker 2"><rect fill="#90EE90" height="46.2969" rx="2.5" ry="2.5" style="stroke:#181818;stroke-width:0.5;" width="135.0059" x="787.5" y="1267.6544"/><rect fill="#90EE90" height="10" style="stroke:#181818;stroke-width:0.5;" width="15" x="902.5059" y="1272.6544"/><rect fill="#90EE90" height="2" style="stroke:#181818;stroke-width:0.5;" width="4" x="900.5059" y="1274.6544"/><rect fill="#90EE90" height="2" style="stroke:#181818;stroke-width:0.5;" width="4" x="900.5059" y="1278.6544"/><text fill="#000000" font-family="sans-serif" font-size="14" lengthAdjust="spacing" textLength="95.0059" x="802.5" y="1300.6495">web worker 2</text></g><text fill="#000000" font-family="sans-serif" font-size="14" lengthAdjust="spacing" textLength="36.0732" x="527.9634" y="351.6326">HTTP</text><rect fill="#F1F1F1" height="12" style="stroke:#181818;stroke-width:1.5;" width="12" x="540" y="366.9344"/><!--entity RPC Demux--><g id="elem_RPC Demux"><rect fill="#FFA500" height="46.2969" rx="2.5" ry="2.5" style="stroke:#181818;stroke-width:0.5;" width="122.585" x="317.71" y="633.6244"/><rect fill="#FFA500" height="10" style="stroke:#181818;stroke-width:0.5;" width="15" x="420.295" y="638.6244"/><rect fill="#FFA500" height="2" style="stroke:#181818;stroke-width:0.5;" width="4" x="418.295" y="640.6244"/><rect fill="#FFA500" height="2" style="stroke:#181818;stroke-width:0.5;" width="4" x="418.295" y="644.6244"/><text fill="#000000" font-family="sans-serif" font-size="14" lengthAdjust="spacing" textLength="82.585" x="332.71" y="666.6195">RPC Demux</text></g><!--entity rpc_local--><g id="elem_rpc_local"><rect fill="#FFA500" height="46.2969" rx="2.5" ry="2.5" style="stroke:#181818;stroke-width:0.5;" width="158.2275" x="28.89" y="832.3244"/><rect fill="#FFA500" height="10" style="stroke:#181818;stroke-width:0.5;" width="15" x="167.1175" y="837.3244"/><rect fill="#FFA500" height="2" style="stroke:#181818;stroke-width:0.5;" width="4" x="165.1175" y="839.3244"/><rect fill="#FFA500" height="2" style="stroke:#181818;stroke-width:0.5;" width="4" x="165.1175" y="843.3244"/><text fill="#000000" font-family="sans-serif" font-size="14" lengthAdjust="spacing" textLength="57.8457" x="43.89" y="865.3195">/api/rpc/</text><text fill="#000000" font-family="sans-serif" font-size="14" font-weight="bold" lengthAdjust="spacing" textLength="60.3818" x="101.7357" y="865.3195">method</text></g><!--entity axum_rpc_handler--><g id="elem_axum_rpc_handler"><rect fill="#FFA500" height="46.2969" rx="2.5" ry="2.5" style="stroke:#181818;stroke-width:0.5;" width="169.1855" x="23.41" y="1054.0644"/><rect fill="#FFA500" height="10" style="stroke:#181818;stroke-width:0.5;" width="15" x="172.5955" y="1059.0644"/><rect fill="#FFA500" height="2" style="stroke:#181818;stroke-width:0.5;" width="4" x="170.5955" y="1061.0644"/><rect fill="#FFA500" height="2" style="stroke:#181818;stroke-width:0.5;" width="4" x="170.5955" y="1065.0644"/><text fill="#000000" font-family="sans-serif" font-size="14" lengthAdjust="spacing" textLength="129.1855" x="38.41" y="1087.0595">axum_rpc_handler</text></g><!--entity Auth--><g id="elem_Auth"><rect fill="#F1F1F1" height="46.2969" rx="2.5" ry="2.5" style="stroke:#181818;stroke-width:0.5;" width="72.8125" x="573.59" y="499.0744"/><rect fill="#F1F1F1" height="10" style="stroke:#181818;stroke-width:0.5;" width="15" x="626.4025" y="504.0744"/><rect fill="#F1F1F1" height="2" style="stroke:#181818;stroke-width:0.5;" width="4" x="624.4025" y="506.0744"/><rect fill="#F1F1F1" height="2" style="stroke:#181818;stroke-width:0.5;" width="4" x="624.4025" y="510.0744"/><text fill="#000000" font-family="sans-serif" font-size="14" lengthAdjust="spacing" textLength="32.8125" x="588.59" y="532.0695">Auth</text></g><!--entity Service Resolution Data--><g id="elem_Service Resolution Data"><rect fill="#F1F1F1" height="46.2969" rx="2.5" ry="2.5" style="stroke:#181818;stroke-width:0.5;" width="207.8496" x="228.08" y="1054.0644"/><rect fill="#F1F1F1" height="10" style="stroke:#181818;stroke-width:0.5;" width="15" x="415.9296" y="1059.0644"/><rect fill="#F1F1F1" height="2" style="stroke:#181818;stroke-width:0.5;" width="4" x="413.9296" y="1061.0644"/><rect fill="#F1F1F1" height="2" style="stroke:#181818;stroke-width:0.5;" width="4" x="413.9296" y="1065.0644"/><text fill="#000000" font-family="sans-serif" font-size="14" lengthAdjust="spacing" textLength="167.8496" x="243.08" y="1087.0595">Service Resolution Data</text></g><g id="elem_GMN26"><path d="M475.1,606.3744 L475.1,652.7744 L440.45,656.7744 L475.1,660.7744 L475.1,707.1713 A0,0 0 0 0 475.1,707.1713 L722.9018,707.1713 A0,0 0 0 0 722.9018,707.1713 L722.9018,616.3744 L712.9018,606.3744 L475.1,606.3744 A0,0 0 0 0 475.1,606.3744 " fill="#FEFFDD" style="stroke:#181818;stroke-width:0.5;"/><path d="M712.9018,606.3744 L712.9018,616.3744 L722.9018,616.3744 L712.9018,606.3744 " fill="#FEFFDD" style="stroke:#181818;stroke-width:0.5;"/><text fill="#000000" font-family="sans-serif" font-size="13" lengthAdjust="spacing" textLength="101.5371" x="481.1" y="623.4413">method of form</text><text fill="#000000" font-family="sans-serif" font-size="13" font-weight="bold" lengthAdjust="spacing" textLength="52.4189" x="586.7694" y="623.4413">service</text><text fill="#000000" font-family="sans-serif" font-size="13" lengthAdjust="spacing" textLength="4.3799" x="643.3207" y="623.4413">/</text><text fill="#000000" font-family="sans-serif" font-size="13" font-weight="bold" lengthAdjust="spacing" textLength="56.0688" x="651.8329" y="623.4413">method</text><text fill="#000000" font-family="sans-serif" font-size="13" lengthAdjust="spacing" textLength="126.2485" x="481.1" y="638.5741">needs to be sent to</text><text fill="#000000" font-family="sans-serif" font-size="13" font-weight="bold" lengthAdjust="spacing" textLength="52.4189" x="611.4809" y="638.5741">service</text><text fill="#000000" font-family="sans-serif" font-size="13" lengthAdjust="spacing" textLength="4.1323" x="481.1" y="653.7069">&#160;</text><text fill="#000000" font-family="sans-serif" font-size="13" lengthAdjust="spacing" textLength="63.6479" x="481.1" y="668.8397">otherwise</text><text fill="#000000" font-family="sans-serif" font-size="13" lengthAdjust="spacing" textLength="4.1323" x="481.1" y="683.9725">&#160;</text><text fill="#000000" font-family="sans-serif" font-size="13" lengthAdjust="spacing" textLength="185.4214" x="481.1" y="699.1053">It is handled by the gateway</text></g><g id="elem_GMN29"><path d="M218.57,1240.4044 L218.57,1341.2013 A0,0 0 0 0 218.57,1341.2013 L445.4372,1341.2013 A0,0 0 0 0 445.4372,1341.2013 L445.4372,1250.4044 L435.4372,1240.4044 L336,1240.4044 L332,1100.8544 L328,1240.4044 L218.57,1240.4044 A0,0 0 0 0 218.57,1240.4044 " fill="#FEFFDD" style="stroke:#181818;stroke-width:0.5;"/><path d="M435.4372,1240.4044 L435.4372,1250.4044 L445.4372,1250.4044 L435.4372,1240.4044 " fill="#FEFFDD" style="stroke:#181818;stroke-width:0.5;"/><text fill="#000000" font-family="sans-serif" font-size="13" lengthAdjust="spacing" textLength="89.1021" x="224.57" y="1257.4713">.toml file with</text><text fill="#000000" font-family="sans-serif" font-size="13" lengthAdjust="spacing" textLength="4.1323" x="224.57" y="1272.6041">&#160;</text><text fill="#000000" font-family="sans-serif" font-size="13" lengthAdjust="spacing" textLength="205.8672" x="224.57" y="1287.7369">SERVICE_RESOLUTION_LLM = {</text><text fill="#000000" font-family="sans-serif" font-size="13" lengthAdjust="spacing" textLength="142.8096" x="224.57" y="1302.8697">"name": "llm-worker",</text><text fill="#000000" font-family="sans-serif" font-size="13" lengthAdjust="spacing" textLength="122.9795" x="224.57" y="1318.0025">"host": "localhost",</text><text fill="#000000" font-family="sans-serif" font-size="13" lengthAdjust="spacing" textLength="84.3413" x="224.57" y="1333.1353">"port":8081}</text></g><!--entity service ? URL\nservice/method ? method--><g id="elem_service &#8594; URL\nservice/method &#8594; method"><rect fill="#FFD700" height="62.5938" rx="2.5" ry="2.5" style="stroke:#181818;stroke-width:0.5;" width="223.627" x="235.19" y="824.1744"/><rect fill="#FFD700" height="10" style="stroke:#181818;stroke-width:0.5;" width="15" x="438.817" y="829.1744"/><rect fill="#FFD700" height="2" style="stroke:#181818;stroke-width:0.5;" width="4" x="436.817" y="831.1744"/><rect fill="#FFD700" height="2" style="stroke:#181818;stroke-width:0.5;" width="4" x="436.817" y="835.1744"/><text fill="#000000" font-family="sans-serif" font-size="14" lengthAdjust="spacing" textLength="98.5537" x="250.19" y="857.1695">service &#8594; URL</text><text fill="#000000" font-family="sans-serif" font-size="14" lengthAdjust="spacing" textLength="183.627" x="250.19" y="873.4664">service/method &#8594; method</text></g><!--entity URL \nCtx ? HTTP Header\nJSON rpc2 ? Body--><g id="elem_URL \nCtx &#8594; HTTP Header\nJSON rpc2 &#8594; Body"><rect fill="#FFD700" height="78.8906" rx="2.5" ry="2.5" style="stroke:#181818;stroke-width:0.5;" width="175.6797" x="484.16" y="1037.7644"/><rect fill="#FFD700" height="10" style="stroke:#181818;stroke-width:0.5;" width="15" x="639.8397" y="1042.7644"/><rect fill="#FFD700" height="2" style="stroke:#181818;stroke-width:0.5;" width="4" x="637.8397" y="1044.7644"/><rect fill="#FFD700" height="2" style="stroke:#181818;stroke-width:0.5;" width="4" x="637.8397" y="1048.7644"/><text fill="#000000" font-family="sans-serif" font-size="14" lengthAdjust="spacing" textLength="27.7744" x="499.16" y="1070.7595">URL</text><text fill="#000000" font-family="sans-serif" font-size="14" lengthAdjust="spacing" textLength="135.6797" x="499.16" y="1087.0564">Ctx &#8594; HTTP Header</text><text fill="#000000" font-family="sans-serif" font-size="14" lengthAdjust="spacing" textLength="126.1777" x="499.16" y="1103.3532">JSON rpc2 &#8594; Body</text></g><!--entity User Table--><g id="elem_User Table"><rect fill="#F1F1F1" height="46.2969" rx="2.5" ry="2.5" style="stroke:#181818;stroke-width:0.5;" width="114.8809" x="810.56" y="349.7844"/><rect fill="#F1F1F1" height="10" style="stroke:#181818;stroke-width:0.5;" width="15" x="905.4409" y="354.7844"/><rect fill="#F1F1F1" height="2" style="stroke:#181818;stroke-width:0.5;" width="4" x="903.4409" y="356.7844"/><rect fill="#F1F1F1" height="2" style="stroke:#181818;stroke-width:0.5;" width="4" x="903.4409" y="360.7844"/><text fill="#000000" font-family="sans-serif" font-size="14" lengthAdjust="spacing" textLength="74.8809" x="825.56" y="382.7795">User Table</text></g><!--entity Session Table--><g id="elem_Session Table"><rect fill="#F1F1F1" height="46.2969" rx="2.5" ry="2.5" style="stroke:#181818;stroke-width:0.5;" width="136.3867" x="960.81" y="349.7844"/><rect fill="#F1F1F1" height="10" style="stroke:#181818;stroke-width:0.5;" width="15" x="1077.1967" y="354.7844"/><rect fill="#F1F1F1" height="2" style="stroke:#181818;stroke-width:0.5;" width="4" x="1075.1967" y="356.7844"/><rect fill="#F1F1F1" height="2" style="stroke:#181818;stroke-width:0.5;" width="4" x="1075.1967" y="360.7844"/><text fill="#000000" font-family="sans-serif" font-size="14" lengthAdjust="spacing" textLength="96.3867" x="975.81" y="382.7795">Session Table</text></g><!--entity Browser--><g id="elem_Browser"><rect fill="#F1F1F1" height="46.2969" rx="2.5" ry="2.5" style="stroke:#181818;stroke-width:0.5;" width="97.0391" x="497.48" y="113.4844"/><rect fill="#F1F1F1" height="10" style="stroke:#181818;stroke-width:0.5;" width="15" x="574.5191" y="118.4844"/><rect fill="#F1F1F1" height="2" style="stroke:#181818;stroke-width:0.5;" width="4" x="572.5191" y="120.4844"/><rect fill="#F1F1F1" height="2" style="stroke:#181818;stroke-width:0.5;" width="4" x="572.5191" y="124.4844"/><text fill="#000000" font-family="sans-serif" font-size="14" lengthAdjust="spacing" textLength="57.0391" x="512.48" y="146.4795">Browser</text></g><g id="elem_GMN40"><path d="M995.47,1232.8444 L995.47,1348.7741 L1210.5305,1348.7741 L1210.5305,1242.8444 L1200.5305,1232.8444 L995.47,1232.8444 " fill="#FEFFDD" style="stroke:#181818;stroke-width:0.5;"/><path d="M1200.5305,1232.8444 L1200.5305,1242.8444 L1210.5305,1242.8444 L1200.5305,1232.8444 " fill="#FEFFDD" style="stroke:#181818;stroke-width:1.0;"/><text fill="#000000" font-family="sans-serif" font-size="13" lengthAdjust="spacing" textLength="185.1484" x="1001.47" y="1249.9113">To start these can simply be</text><text fill="#000000" font-family="sans-serif" font-size="13" lengthAdjust="spacing" textLength="194.0605" x="1001.47" y="1265.0441">json-rpc web-services without</text><text fill="#000000" font-family="sans-serif" font-size="13" lengthAdjust="spacing" textLength="33.6743" x="1001.47" y="1280.1769">auth.</text><text fill="#000000" font-family="sans-serif" font-size="13" lengthAdjust="spacing" textLength="4.1323" x="1001.47" y="1295.3097">&#160;</text><text fill="#000000" font-family="sans-serif" font-size="13" lengthAdjust="spacing" textLength="187.9668" x="1001.47" y="1310.4425">They instead take previously</text><text fill="#000000" font-family="sans-serif" font-size="13" lengthAdjust="spacing" textLength="153.3149" x="1001.47" y="1325.5753">auth'd context over the</text><text fill="#000000" font-family="sans-serif" font-size="13" lengthAdjust="spacing" textLength="137.2617" x="1001.47" y="1340.7081">HTTP request header</text></g><!--link Auth to RPC Demux--><g id="link_Auth_RPC Demux"><path d="M573.12,542.6244 C542.13,559.1144 496.81,583.6544 458,606.3744 C443.48,614.8744 432.7935,621.4213 419.2035,630.0013 " fill="none" id="Auth-to-RPC Demux" style="stroke:#181818;stroke-width:1.0;"/><polygon fill="#181818" points="414.13,633.2044,423.8756,631.782,418.3579,630.5351,419.6048,625.0174,414.13,633.2044" style="stroke:#181818;stroke-width:1.0;"/></g><!--link RPC Demux to rpc_local--><g id="link_RPC Demux_rpc_local"><path d="M330.41,680.3344 C297.59,696.5844 254.03,720.1544 219,746.1744 C183.99,772.1844 152.8702,804.1995 131.7802,827.4595 " fill="none" id="RPC Demux-to-rpc_local" style="stroke:#181818;stroke-width:1.0;"/><polygon fill="#181818" points="127.75,831.9044,136.7586,827.9238,131.1085,828.2003,130.8321,822.5502,127.75,831.9044" style="stroke:#181818;stroke-width:1.0;"/></g><!--link RPC Demux to rpc_remote--><g id="link_RPC Demux_rpc_remote"><path d="M412.61,680.1044 C433.83,696.0044 459.98,719.2644 475,746.1744 C477.7537,751.1081 477.9885,750.7464 480.0761,756.1471 " fill="none" id="RPC Demux-to-rpc_remote" style="stroke:#181818;stroke-width:1.0;"/><polygon fill="#181818" points="482.2393,761.7436,482.7254,751.9067,480.4366,757.0799,475.2635,754.7911,482.2393,761.7436" style="stroke:#181818;stroke-width:1.0;"/></g><!--link rpc_local to axum_rpc_handler--><g id="link_rpc_local_axum_rpc_handler"><path d="M108,878.7444 C108,920.8644 108,1005.7144 108,1047.8744 " fill="none" id="rpc_local-to-axum_rpc_handler" style="stroke:#181818;stroke-width:1.0;"/><polygon fill="#181818" points="108,1053.8744,112,1044.8744,108,1048.8744,104,1044.8744,108,1053.8744" style="stroke:#181818;stroke-width:1.0;"/></g><!--link rpc_remote to Web Client--><g id="link_rpc_remote_Web Client"><path d="M506.2809,859.0596 C506.5575,859.1343 506.8391,859.2107 507.1255,859.2888 C511.7088,860.5381 517.5391,862.219 524.2938,864.363 C537.8031,868.6509 555.01,874.7913 573.3325,883.0356 C609.9775,899.5244 651.085,924.4294 676,959.7644 C677.7606,962.2619 679.3875,964.8623 680.8903,967.5453 C681.6417,968.8868 682.3621,970.2489 683.0526,971.6291 C683.3979,972.3192 683.7357,973.0138 684.0662,973.7126 C684.2315,974.062 684.3949,974.4125 684.5565,974.764 C684.6373,974.9397 682.24,969.6511 682.3199,969.8274 " fill="none" id="rpc_remote-to-Web Client" style="stroke:#181818;stroke-width:1.0;"/><polygon fill="#181818" points="684.7976,975.2919,684.7241,965.4433,682.7329,970.7381,677.4381,968.7469,684.7976,975.2919" style="stroke:#181818;stroke-width:1.0;"/></g><!--link rpc_remote to Service Resolution Data--><g id="link_rpc_remote_Service Resolution Data"><path d="M482.638,910.8011 C482.5499,911.0231 482.4613,911.2449 482.3721,911.4665 C481.6587,913.2392 480.9113,914.9978 480.1288,916.7321 C478.5636,920.2006 476.8575,923.5719 475,926.7644 C444.76,978.7644 397.476,1022.8493 365.216,1049.7793 " fill="none" id="rpc_remote-to-Service Resolution Data" style="stroke:#181818;stroke-width:1.0;stroke-dasharray:7.0,7.0;"/><polygon fill="#181818" points="360.61,1053.6244,370.0824,1050.9275,364.4484,1050.4202,364.9557,1044.7861,360.61,1053.6244" style="stroke:#181818;stroke-width:1.0;"/></g><!--link Web Client to Service 1--><g id="link_Web Client_Service 1"><path d="M707.0951,1047.1221 C707.1585,1046.964 707.2223,1046.8054 707.2864,1046.6465 C707.5428,1046.0108 707.8042,1045.3691 708.0707,1044.7219 C708.6038,1043.4274 709.1573,1042.1107 709.7314,1040.7749 C712.0281,1035.4316 714.6556,1029.7834 717.63,1024.0356 C729.5275,1001.0444 746.975,976.4594 771,963.4244 C803.81,945.6244 910.41,939.4144 939,963.4244 C947.91,970.9044 951.8343,975.17 955.6299,986.0578 " fill="none" id="Web Client-to-Service 1" style="stroke:#181818;stroke-width:1.0;"/><polygon fill="#181818" points="957.605,991.7234,958.4194,981.9083,955.9591,987.0021,950.8653,984.5418,957.605,991.7234" style="stroke:#181818;stroke-width:1.0;"/><text fill="#000000" font-family="sans-serif" font-size="13" lengthAdjust="spacing" textLength="33.4966" x="811.5" y="947.8313">HTTP</text></g><!--link Web Client to Service 2--><g id="link_Web Client_Service 2"><path d="M707.1044,1093.7162 C707.6552,1094.5033 708.2264,1095.3117 708.8175,1096.1396 C709.9996,1097.7952 711.2612,1099.528 712.598,1101.3216 C715.2717,1104.9086 718.2462,1108.7381 721.4875,1112.6769 C734.4525,1128.4319 751.685,1145.9344 771,1156.6544 C820.15,1183.9444 839.79,1171.0744 895,1181.6544 C914.52,1185.4044 924.82,1175.7244 939,1189.6544 C942.73,1193.3206 945.8659,1197.4719 948.4952,1201.9477 C949.1525,1203.0666 947.0329,1198.8707 947.6283,1200.0277 " fill="none" id="Web Client-to-Service 2" style="stroke:#181818;stroke-width:1.0;"/><polygon fill="#181818" points="950.3735,1205.3628,949.8124,1195.53,948.0858,1200.9169,942.6989,1199.1903,950.3735,1205.3628" style="stroke:#181818;stroke-width:1.0;"/><text fill="#000000" font-family="sans-serif" font-size="13" lengthAdjust="spacing" textLength="33.4966" x="896" y="1177.7213">HTTP</text></g><!--link Browser to HTTP--><g id="link_Browser_HTTP"><path d="M546,160.1044 C546,212.3244 546,333.5544 546,360.7544 " fill="none" id="Browser-to-HTTP" style="stroke:#181818;stroke-width:1.0;"/><polygon fill="#181818" points="546,366.7544,550,357.7544,546,361.7544,542,357.7544,546,366.7544" style="stroke:#181818;stroke-width:1.0;"/></g><!--link HTTP to Auth--><g id="link_HTTP_Auth"><path d="M548.28,379.1744 C556.49,398.0844 582.5392,458.0213 597.7792,493.1013 " fill="none" id="HTTP-to-Auth" style="stroke:#181818;stroke-width:1.0;"/><polygon fill="#181818" points="600.17,498.6044,600.2526,488.7559,598.1777,494.0184,592.9151,491.9435,600.17,498.6044" style="stroke:#181818;stroke-width:1.0;"/></g><!--reverse link Auth Tables to Auth--><g id="link_Auth Tables_Auth"><path d="M1131.721,426.0327 C1131.6686,426.3086 1132.6346,421.0996 1132.5801,421.3757 C1132.3623,422.4802 1132.1274,423.5857 1131.8743,424.6901 C1130.8621,429.1077 1129.5592,433.5068 1127.8947,437.7439 C1124.5656,446.2181 1119.79,454.0444 1113,460.0744 C1044.03,521.3544 750.41,523.2644 646.57,521.9644 " fill="none" id="Auth Tables-backto-Auth" style="stroke:#181818;stroke-width:1.0;"/><polygon fill="#181818" points="1132.818,420.1338,1127.2399,428.2507,1131.9038,425.0495,1135.105,429.7135,1132.818,420.1338" style="stroke:#181818;stroke-width:1.0;"/></g><!--link web worker 1 to GMN40--><g id="link_web worker 1_GMN40"><path d="M872.94,1100.5444 C886.77,1117.0444 906.88,1139.5144 927,1156.6544 C947.26,1173.9244 955.45,1174.0244 977,1189.6544 C995.55,1203.1144 1015.14,1218.2244 1033.21,1232.5444 " fill="none" id="web worker 1-GMN40" style="stroke:#181818;stroke-width:1.0;stroke-dasharray:7.0,7.0;"/></g><!--SRC=[XLJ1Rjf04BtxAqQRGoMhGCEfYjf82OaIAff4G5fL1A453zYDlKjtrm5KkFO3-edzaiwkRMmWj9pCp9kPDpDlnqGcHW3m0DOj6KkrXlvgZh2sXWydtp2EvU9y3HUf2L6OQC8D1hdpNd4nGt9s7rhG2daaSiUDGXHalvFYCD134O2nPJrlSAdaGgCQUjvKyGI1zL2zH1E4KmPP6lX9CG231OvX8TKpAZWTmaadceKc0tYRW-ZcFwARkz6sTqemaSbS2Y8AxEAX3JV4Ti5Nb2QRG9vdBfM91B3RVl-1GJOsW39sO2TnXKcwf2BIZMSVqU3pgA7cauRl9sX26VZ-4BY60Tb6iPpm-5WesuO2-BxEMmNwLoHYDX6pYHGcqY0hCkNqzwWKAVxy-WsFtSwJo0sDB9-pPvz4QIRZm2NPWBVV4r-coSYM3Ra8ObhdiGw-qXfQSKJV_w56TE19jCpIaR3ZXbla0QedyQbtVmTKhEbSbp9OxR3Bo0six8PGgvrNTvAvAZjo_dBmn_tPF8VPlZDOPLyETZ244bP4ErmvWrSGKAyJf91n5xMCKnFHCxhYXW_ptYePW39MtyoPczKhi2gkkSKveA3AeEoB03az69VzvNeWxrIgf1IVxvFwIXrlyG8nq60aZ16qtITzLeAyBL3IRL2BI6DfQXk8D6Gp362y0eB0B7kE3cJFXwLS8J-MniZ4iJywkY9_dP0nJ2EwUel8X51MxbrtlxHRrwFkTU- -yzXltz-DEftFyB6YK2RepB0pO76SrB9xmjv2wGwbDivjTU7-LBtsUh2pz-_UdsvsEzauLNa14HrpJNViwfBbLQSaR3fQpEeP-dmSesOLGeD7ccfcBrka8MXjEw_ODuMpA5RUtamSxgHvNdxQd5BT6o9W_fRIkSLLYNZU_lXthhGht9UW3LV6xf5Qct01EahcySgAmo6-Qobgz0Y0WckvIBHRZaoDGt2gMQ-ylNw8AuY4DdGImF1dXBd2bqYccj9k8zu4T564mINf-eK8MI4vfpid2d-ag0s4xgnunIx-0W00]--></g></svg>