<svg xmlns="http://www.w3.org/2000/svg" xmlns:xlink="http://www.w3.org/1999/xlink" contentStyleType="text/css" height="766px" preserveAspectRatio="none" style="width:910px;height:766px;background:#FFFFFF;" version="1.1" viewBox="0 0 910 766" width="910px" zoomAndPan="magnify"><defs/><g><!--cluster Deployment--><g id="cluster_Deployment"><path d="M46.0102,133.4171 C62.6168,106.1146 81.0628,103.8394 104.9434,124.4749 C122.604,100.4314 145.8495,95.7832 162.6637,125.3856 C178.1057,97.8662 202.7758,90.914 222.2573,121.2227 C238.9877,97.2828 265.72,95.9917 278.1954,125.6624 C292.4104,95.5597 317.2539,95.6522 336.3207,120.5334 C349.5012,96.9315 373.6605,94.8892 389.7821,117.1013 C405.4749,89.2348 429.1438,96.7175 442.7509,119.2916 C462.9486,91.4638 487.9301,94.7964 503.384,124.3079 C514.6165,99.6093 537.0232,95.0775 552.9068,119.6312 C573.6086,91.1831 597.3116,94.891 610.7101,126.6437 C629.0456,100.2726 650.3939,97.1135 671.4144,123.5577 C688.3486,93.983 712.4741,95.6837 731.2102,121.6166 C749.8747,98.9268 767.8616,96.6125 783.0415,125.1428 C802.9378,100.5515 827.2896,105.4456 841.9095,131.3 C843.8578,130.5626 845.1498,131.572 845.0358,133.6171 C877.7311,148.5898 877.5054,170.3002 853.0447,192.9837 C878.794,210.001 881.9964,238.5946 850.7205,253.4188 C882.3367,267.6707 880.5874,296.9145 854.2567,314.5201 C878.757,330.6042 880.1059,347.6228 856.0003,365.3735 C881.5686,381.9721 880.0056,409.6139 852.1073,422.5736 C879.0274,436.7635 879.2735,466.9428 854.9546,483.5262 C886.3106,506.9371 878.0816,530.893 847.5571,547.1038 C871.8304,561.4345 875.0494,583.8799 847.6351,598.2893 C872.7006,614.191 874.6517,640.2903 849.6668,657.898 C870.1534,684.4845 871.6277,706.8899 834.9095,719.85 C840.4812,718.7378 844.0461,719.6433 843.3181,726.4985 C826.847,749.1775 800.9528,747.0928 787.2884,723.1271 C768.0405,748.3516 745.0302,753.2726 727.4313,721.3985 C716.6765,751.6094 694.7714,752.4485 675.5406,729.7041 C655.3019,751.8001 633.4001,749.0409 618.409,723.4211 C601.0063,755.3442 576.4564,756.1567 558.7011,723.7484 C539.8802,754.2604 520.2275,748.803 500.6281,724.5744 C483.0146,748.948 463.3353,752.129 446.3194,723.9567 C432.3804,756.1453 405.0062,755.9817 385.799,729.3798 C367.3229,756.8391 350.7147,752.4446 332.1354,729.4898 C313.321,759.0387 296.046,756.9559 275.0112,731.8088 C256.3156,755.8928 235.9203,748.1095 223.3691,725.0747 C209.7927,757.4368 178.8747,754.8714 161.6932,728.8854 C142.8732,750.0124 121.0451,750.4809 106.4878,723.9479 C79.2225,752.4156 53.3446,752.2832 36.9095,712.85 C40.7582,709.1723 43.9037,710.3278 45.6784,715.0223 C16.7867,702.5706 15.72,678.2093 36.0924,657.5419 C9.6046,638.5953 14.4839,613.3655 43.3254,601.5688 C9.7021,591.1396 6.6994,562.0561 33.8617,541.974 C10.6452,523.6102 10.904,496.2937 40.2201,483.6577 C12.0026,470.8677 9.9336,445.8574 31.7281,425.7351 C11.9608,405.6613 9.1811,387.6521 37.9905,373.3898 C6,349.4411 7.6722,329.6609 42.8105,310.8891 C16.7035,293.0347 14.8702,274.5256 41.9162,255.8082 C14.5296,238.0342 12.2931,214.9504 40.5428,195.9009 C7.145,171.7992 12.961,145.3761 43.9095,124.3 C48.3046,125.7109 50.1608,130.0372 46.0102,133.4171 " fill="none" style="stroke:#181818;stroke-width:1.0;"/><text fill="#000000" font-family="sans-serif" font-size="14" font-weight="bold" lengthAdjust="spacing" textLength="95.4229" x="391.6981" y="142.2951">Deployment</text></g><!--cluster Ingress--><g id="cluster_Ingress"><path d="M63.4095,167.3 L122.6722,167.3 A3.75,3.75 0 0 1 125.1722,169.8 L132.1722,189.5969 L815.4095,189.5969 A2.5,2.5 0 0 1 817.9095,192.0969 L817.9095,424.76 A2.5,2.5 0 0 1 815.4095,427.26 L63.4095,427.26 A2.5,2.5 0 0 1 60.9095,424.76 L60.9095,169.8 A2.5,2.5 0 0 1 63.4095,167.3 " fill="none" style="stroke:#000000;stroke-width:1.5;"/><line style="stroke:#000000;stroke-width:1.5;" x1="60.9095" x2="132.1722" y1="189.5969" y2="189.5969"/><text fill="#000000" font-family="sans-serif" font-size="14" font-weight="bold" lengthAdjust="spacing" textLength="58.2627" x="64.9095" y="182.2951">Ingress</text></g><!--cluster worker--><g id="cluster_worker"><path d="M403.4095,582.55 L459.5755,582.55 A3.75,3.75 0 0 1 462.0755,585.05 L469.0755,604.8469 L698.4095,604.8469 A2.5,2.5 0 0 1 700.9095,607.3469 L700.9095,693.35 A2.5,2.5 0 0 1 698.4095,695.85 L403.4095,695.85 A2.5,2.5 0 0 1 400.9095,693.35 L400.9095,585.05 A2.5,2.5 0 0 1 403.4095,582.55 " fill="none" style="stroke:#000000;stroke-width:1.5;"/><line style="stroke:#000000;stroke-width:1.5;" x1="400.9095" x2="469.0755" y1="604.8469" y2="604.8469"/><text fill="#000000" font-family="sans-serif" font-size="14" font-weight="bold" lengthAdjust="spacing" textLength="55.166" x="404.9095" y="597.5451">worker</text></g><g id="elem_GMN23"><path d="M89.2395,621 L89.2395,676.3984 A0,0 0 0 0 89.2395,676.3984 L376.5872,676.3984 A0,0 0 0 0 376.5872,676.3984 L376.5872,631 L366.5872,621 L272.4695,621 L391.0995,527.75 L264.4695,621 L89.2395,621 A0,0 0 0 0 89.2395,621 " fill="#FEFFDD" style="stroke:#181818;stroke-width:0.5;"/><path d="M366.5872,621 L366.5872,631 L376.5872,631 L366.5872,621 " fill="#FEFFDD" style="stroke:#181818;stroke-width:0.5;"/><text fill="#000000" font-family="sans-serif" font-size="13" lengthAdjust="spacing" textLength="70.1797" x="95.2395" y="638.0669">docker run</text><text fill="#000000" font-family="sans-serif" font-size="13" lengthAdjust="spacing" text-decoration="line-through" textLength="18.0083" x="169.5515" y="638.0669">rm</text><text fill="#000000" font-family="sans-serif" font-size="13" lengthAdjust="spacing" textLength="149.2588" x="191.6922" y="638.0669">name pg -p 5432:5432</text><text fill="#000000" font-family="sans-serif" font-size="13" lengthAdjust="spacing" textLength="237.4214" x="95.2395" y="653.1997">-e POSTGRES_PASSWORD=welcome</text><text fill="#000000" font-family="sans-serif" font-size="13" lengthAdjust="spacing" textLength="77.3652" x="95.2395" y="668.3325">postgres:15</text></g><!--entity web-gateway--><g id="elem_web-gateway"><rect fill="#F1F1F1" height="46.2969" rx="2.5" ry="2.5" style="stroke:#181818;stroke-width:0.5;" width="133.8848" x="499.9695" y="356.96"/><rect fill="#F1F1F1" height="10" style="stroke:#181818;stroke-width:0.5;" width="15" x="613.8543" y="361.96"/><rect fill="#F1F1F1" height="2" style="stroke:#181818;stroke-width:0.5;" width="4" x="611.8543" y="363.96"/><rect fill="#F1F1F1" height="2" style="stroke:#181818;stroke-width:0.5;" width="4" x="611.8543" y="367.96"/><text fill="#000000" font-family="sans-serif" font-size="14" lengthAdjust="spacing" textLength="93.8848" x="514.9695" y="389.9551">web-gateway</text></g><g id="elem_GMN5"><path d="M546.3695,210.3 L546.3695,295.9641 A0,0 0 0 0 546.3695,295.9641 L623.7595,295.9641 L583.5595,356.49 L631.7595,295.9641 L771.4594,295.9641 A0,0 0 0 0 771.4594,295.9641 L771.4594,220.3 L761.4594,210.3 L546.3695,210.3 A0,0 0 0 0 546.3695,210.3 " fill="#FEFFDD" style="stroke:#181818;stroke-width:0.5;"/><path d="M761.4594,210.3 L761.4594,220.3 L771.4594,220.3 L761.4594,210.3 " fill="#FEFFDD" style="stroke:#181818;stroke-width:0.5;"/><text fill="#000000" font-family="sans-serif" font-size="13" lengthAdjust="spacing" textLength="160.1577" x="552.3695" y="227.3669">PG_DEV_POSTGRES_URL</text><text fill="#000000" font-family="sans-serif" font-size="13" lengthAdjust="spacing" textLength="114.8926" x="552.3695" y="242.4997">PG_DEV_APP_URL</text><text fill="#000000" font-family="sans-serif" font-size="13" lengthAdjust="spacing" textLength="204.0898" x="552.3695" y="257.6325">SQL_RECREATE_DB_FILE_NAME</text><text fill="#000000" font-family="sans-serif" font-size="13" lengthAdjust="spacing" textLength="55.104" x="552.3695" y="272.7653">SQL_DIR</text><text fill="#000000" font-family="sans-serif" font-size="13" lengthAdjust="spacing" textLength="76.8765" x="552.3695" y="287.8981">DEMO_PWD</text></g><!--entity config.toml--><g id="elem_config.toml"><rect fill="#F1F1F1" height="46.2969" rx="2.5" ry="2.5" style="stroke:#181818;stroke-width:0.5;" width="118.873" x="346.4695" y="356.96"/><rect fill="#F1F1F1" height="10" style="stroke:#181818;stroke-width:0.5;" width="15" x="445.3426" y="361.96"/><rect fill="#F1F1F1" height="2" style="stroke:#181818;stroke-width:0.5;" width="4" x="443.3426" y="363.96"/><rect fill="#F1F1F1" height="2" style="stroke:#181818;stroke-width:0.5;" width="4" x="443.3426" y="367.96"/><text fill="#000000" font-family="sans-serif" font-size="14" lengthAdjust="spacing" textLength="78.873" x="361.4695" y="389.9551">config.toml</text></g><g id="elem_GMN9"><path d="M176.7895,359.98 L176.7895,400.2456 A0,0 0 0 0 176.7895,400.2456 L311.0254,400.2456 A0,0 0 0 0 311.0254,400.2456 L311.0254,384.11 L346.0395,380.11 L311.0254,376.11 L311.0254,369.98 L301.0254,359.98 L176.7895,359.98 A0,0 0 0 0 176.7895,359.98 " fill="#FEFFDD" style="stroke:#181818;stroke-width:0.5;"/><path d="M301.0254,359.98 L301.0254,369.98 L311.0254,369.98 L301.0254,359.98 " fill="#FEFFDD" style="stroke:#181818;stroke-width:0.5;"/><text fill="#000000" font-family="sans-serif" font-size="13" lengthAdjust="spacing" textLength="113.2358" x="182.7895" y="377.0469">SERVICE_DB_URL</text><text fill="#000000" font-family="sans-serif" font-size="13" lengthAdjust="spacing" textLength="68.7896" x="182.7895" y="392.1797">RUST_LOG</text></g><!--entity dev-services.toml--><g id="elem_dev-services.toml"><rect fill="#F1F1F1" height="46.2969" rx="2.5" ry="2.5" style="stroke:#181818;stroke-width:0.5;" width="164.3115" x="346.7495" y="229.98"/><rect fill="#F1F1F1" height="10" style="stroke:#181818;stroke-width:0.5;" width="15" x="491.061" y="234.98"/><rect fill="#F1F1F1" height="2" style="stroke:#181818;stroke-width:0.5;" width="4" x="489.061" y="236.98"/><rect fill="#F1F1F1" height="2" style="stroke:#181818;stroke-width:0.5;" width="4" x="489.061" y="240.98"/><text fill="#000000" font-family="sans-serif" font-size="14" lengthAdjust="spacing" textLength="124.3115" x="361.7495" y="262.9751">dev-services.toml</text></g><g id="elem_GMN13"><path d="M84.4795,210.3 L84.4795,295.9641 A0,0 0 0 0 84.4795,295.9641 L311.3467,295.9641 A0,0 0 0 0 311.3467,295.9641 L311.3467,257.13 L346.4295,253.13 L311.3467,249.13 L311.3467,220.3 L301.3467,210.3 L84.4795,210.3 A0,0 0 0 0 84.4795,210.3 " fill="#FEFFDD" style="stroke:#181818;stroke-width:0.5;"/><path d="M301.3467,210.3 L301.3467,220.3 L311.3467,220.3 L301.3467,210.3 " fill="#FEFFDD" style="stroke:#181818;stroke-width:0.5;"/><text fill="#000000" font-family="sans-serif" font-size="13" lengthAdjust="spacing" textLength="205.8672" x="90.4795" y="227.3669">SERVICE_RESOLUTION_LLM = {</text><text fill="#000000" font-family="sans-serif" font-size="13" lengthAdjust="spacing" textLength="142.8096" x="107.0088" y="242.4997">"name": "llm-worker",</text><text fill="#000000" font-family="sans-serif" font-size="13" lengthAdjust="spacing" textLength="122.9795" x="107.0088" y="257.6325">"host": "localhost",</text><text fill="#000000" font-family="sans-serif" font-size="13" lengthAdjust="spacing" textLength="76.0703" x="107.0088" y="272.7653">"port":8081</text><text fill="#000000" font-family="sans-serif" font-size="13" lengthAdjust="spacing" textLength="8.271" x="90.4795" y="287.8981">}</text></g><!--entity llm-worker--><g id="elem_llm-worker"><rect fill="#F1F1F1" height="46.2969" rx="2.5" ry="2.5" style="stroke:#181818;stroke-width:0.5;" width="114.7168" x="424.5495" y="625.55"/><rect fill="#F1F1F1" height="10" style="stroke:#181818;stroke-width:0.5;" width="15" x="519.2663" y="630.55"/><rect fill="#F1F1F1" height="2" style="stroke:#181818;stroke-width:0.5;" width="4" x="517.2663" y="632.55"/><rect fill="#F1F1F1" height="2" style="stroke:#181818;stroke-width:0.5;" width="4" x="517.2663" y="636.55"/><text fill="#000000" font-family="sans-serif" font-size="14" lengthAdjust="spacing" textLength="74.7168" x="439.5495" y="658.5451">llm-worker</text></g><!--entity genAI--><g id="elem_genAI"><rect fill="#F1F1F1" height="46.2969" rx="2.5" ry="2.5" style="stroke:#181818;stroke-width:0.5;" width="80.0791" x="573.8695" y="625.55"/><rect fill="#F1F1F1" height="10" style="stroke:#181818;stroke-width:0.5;" width="15" x="633.9486" y="630.55"/><rect fill="#F1F1F1" height="2" style="stroke:#181818;stroke-width:0.5;" width="4" x="631.9486" y="632.55"/><rect fill="#F1F1F1" height="2" style="stroke:#181818;stroke-width:0.5;" width="4" x="631.9486" y="636.55"/><text fill="#000000" font-family="sans-serif" font-size="14" lengthAdjust="spacing" textLength="40.0791" x="588.8695" y="658.5451">genAI</text></g><!--entity postgres--><g id="elem_postgres"><path d="M379.5195,492.26 C379.5195,482.26 419.9121,482.26 419.9121,482.26 C419.9121,482.26 460.3047,482.26 460.3047,492.26 L460.3047,517.5569 C460.3047,527.5569 419.9121,527.5569 419.9121,527.5569 C419.9121,527.5569 379.5195,527.5569 379.5195,517.5569 L379.5195,492.26 " fill="#F1F1F1" style="stroke:#181818;stroke-width:0.5;"/><path d="M379.5195,492.26 C379.5195,502.26 419.9121,502.26 419.9121,502.26 C419.9121,502.26 460.3047,502.26 460.3047,492.26 " fill="none" style="stroke:#181818;stroke-width:0.5;"/><text fill="#000000" font-family="sans-serif" font-size="14" lengthAdjust="spacing" textLength="60.7852" x="389.5195" y="519.2551">postgres</text></g><!--entity Client--><g id="elem_Client"><rect fill="#F1F1F1" height="46.2969" rx="2.5" ry="2.5" style="stroke:#181818;stroke-width:0.5;" width="80.5303" x="767.6395" y="7"/><rect fill="#F1F1F1" height="10" style="stroke:#181818;stroke-width:0.5;" width="15" x="828.1698" y="12"/><rect fill="#F1F1F1" height="2" style="stroke:#181818;stroke-width:0.5;" width="4" x="826.1698" y="14"/><rect fill="#F1F1F1" height="2" style="stroke:#181818;stroke-width:0.5;" width="4" x="826.1698" y="18"/><text fill="#000000" font-family="sans-serif" font-size="14" lengthAdjust="spacing" textLength="40.5303" x="782.6395" y="39.9951">Client</text></g><!--link config.toml to web-gateway--><g id="link_config.toml_web-gateway"><path d="M465.6595,380.11 C476.9895,380.11 482.3295,380.11 493.6695,380.11 " fill="none" id="config.toml-to-web-gateway" style="stroke:#181818;stroke-width:1.0;"/><polygon fill="#181818" points="499.6695,380.11,490.6695,376.11,494.6695,380.11,490.6695,384.11,499.6695,380.11" style="stroke:#181818;stroke-width:1.0;"/></g><!--link dev-services.toml to web-gateway--><g id="link_dev-services.toml_web-gateway"><path d="M453.8995,276.76 C478.9095,299.41 512.7117,330.0229 537.6617,352.6129 " fill="none" id="dev-services.toml-to-web-gateway" style="stroke:#181818;stroke-width:1.0;"/><polygon fill="#181818" points="542.1095,356.64,538.1226,347.6342,538.403,353.2841,532.7531,353.5646,542.1095,356.64" style="stroke:#181818;stroke-width:1.0;"/></g><!--link web-gateway to worker--><g id="link_web-gateway_worker"><path d="M588.0595,403.5 C599.7095,416.67 613.8195,434.07 623.9095,451.26 C646.1695,489.165 662.4295,535.555 673.3533,573.735 C674.036,576.1213 674.6979,578.4754 675.3391,580.7935 C675.4994,581.373 674.0711,598.4609 674.2288,599.0358 " fill="none" id="web-gateway-to-worker" style="stroke:#FFA500;stroke-width:1.0;"/><polygon fill="#FFA500" points="675.8161,604.822,677.2926,595.0845,674.4934,600.0002,669.5777,597.2009,675.8161,604.822" style="stroke:#FFA500;stroke-width:1.0;"/><text fill="#000000" font-family="sans-serif" font-size="13" lengthAdjust="spacing" textLength="52.749" x="658.9295" y="509.4669">JsonRPC</text></g><!--link web-gateway to postgres--><g id="link_web-gateway_postgres"><path d="M539.9495,403.63 C513.2595,425.93 477.2638,455.9929 450.8138,478.0929 " fill="none" id="web-gateway-to-postgres" style="stroke:#FFA500;stroke-width:1.0;"/><polygon fill="#FFA500" points="446.2095,481.94,455.6807,479.2389,450.0465,478.7341,450.5513,473.0998,446.2095,481.94" style="stroke:#FFA500;stroke-width:1.0;"/></g><!--link Client to Ingress--><g id="link_Client_Ingress"><path d="M807.9095,53.55 C807.9095,80.105 807.9095,142.2169 807.9095,183.1531 " fill="none" id="Client-to-Ingress" style="stroke:#181818;stroke-width:1.0;"/><polygon fill="#181818" points="807.9095,189.1531,811.9095,180.1531,807.9095,184.1531,803.9095,180.1531,807.9095,189.1531" style="stroke:#181818;stroke-width:1.0;"/><text fill="#000000" font-family="sans-serif" font-size="13" lengthAdjust="spacing" textLength="93.3042" x="808.9095" y="96.3669">JsonRPC/HTML</text></g><!--SRC=[VLHTRvim57tFhxXYhsLRkrMg8hKI3Mx6H0e3qZv4bUN03OjgR0IqKLNrly-Gn8IFzJvOujw3ppdNruwvV4d0nfpBjmn51UyJK96p-9cb28v82opBGxQErGxNPiegtB6t9vqLiaAeP0voynz47VwSskI1-buOpGCIqcNWZjKjtn-KmZyk3SWi85P4g7rBxnoNq7jhGGOesmawEPiiFEe_sZg98cdqwaJhBPPYiqs_LZBZFMySDrLZRXJIS9FWmParulhYWsKOKTUR3oMqr0c-cYKMhziOoqy5V08ybQ7wwxdBoF7kgUikuFha28zX29QXCGM3yypSoU8P2-CCXh2_igmQc8mPRpx6KBai5Ehg-zLvf_OnCArR_h6ttsdf0MlUZ8pHY7Km1yZE_1e7MwS3tBfjExTAKLZEKqVMwQwAHn7ftRvu1HCfJk5tAKNWps3_Iy8gjcObGgwQL5ySUE-RRHgmbfLINv_c4QY5939M352y24LPP6gf3mdo5CmSBd_-k9ZMYuQR2Fes-LOOFdg1VRr37iiC-zDzv9gUNqw6GzYtUzEQEBYTA0kh6T-gLs8FE3uEkWtVVaKBzny0]--></g></svg>