<svg xmlns="http://www.w3.org/2000/svg" xmlns:xlink="http://www.w3.org/1999/xlink" contentStyleType="text/css" height="1620px" preserveAspectRatio="none" style="width:2514px;height:1620px;background:#FFFFFF;" version="1.1" viewBox="0 0 2514 1620" width="2514px" zoomAndPan="magnify"><title>|Color| Type |</title><defs/><g><text fill="#000000" font-family="sans-serif" font-size="14" font-weight="bold" lengthAdjust="spacing" textLength="41.2139" x="1168.8267" y="24.9951">Color</text><text fill="#000000" font-family="sans-serif" font-size="14" font-weight="bold" lengthAdjust="spacing" textLength="38.1924" x="1214.9146" y="24.9951">Type</text><rect fill="#FFD700" height="16.2969" style="stroke:none;stroke-width:1.0;" width="41.2139" x="1168.8267" y="28.2969"/><text fill="#000000" font-family="sans-serif" font-size="14" font-weight="bold" lengthAdjust="spacing" textLength="4.874" x="1168.8267" y="41.292">&#160;</text><text fill="#000000" font-family="sans-serif" font-size="14" font-weight="bold" lengthAdjust="spacing" textLength="112.3691" x="1214.9146" y="41.292">Authenticated</text><rect fill="#FF0000" height="16.2969" style="stroke:none;stroke-width:1.0;" width="41.2139" x="1168.8267" y="44.5938"/><text fill="#000000" font-family="sans-serif" font-size="14" font-weight="bold" lengthAdjust="spacing" textLength="4.874" x="1168.8267" y="57.5889">&#160;</text><text fill="#000000" font-family="sans-serif" font-size="14" font-weight="bold" lengthAdjust="spacing" textLength="105.7861" x="1214.9146" y="57.5889">Request path</text><rect fill="#008000" height="16.2969" style="stroke:none;stroke-width:1.0;" width="41.2139" x="1168.8267" y="60.8906"/><text fill="#000000" font-family="sans-serif" font-size="14" font-weight="bold" lengthAdjust="spacing" textLength="4.874" x="1168.8267" y="73.8857">&#160;</text><text fill="#000000" font-family="sans-serif" font-size="14" font-weight="bold" lengthAdjust="spacing" textLength="117.0449" x="1214.9146" y="73.8857">Response path</text><line style="stroke:#000000;stroke-width:1.0;" x1="1168.8267" x2="1331.9595" y1="12" y2="12"/><line style="stroke:#000000;stroke-width:1.0;" x1="1168.8267" x2="1331.9595" y1="28.2969" y2="28.2969"/><line style="stroke:#000000;stroke-width:1.0;" x1="1168.8267" x2="1331.9595" y1="44.5938" y2="44.5938"/><line style="stroke:#000000;stroke-width:1.0;" x1="1168.8267" x2="1331.9595" y1="60.8906" y2="60.8906"/><line style="stroke:#000000;stroke-width:1.0;" x1="1168.8267" x2="1331.9595" y1="77.1875" y2="77.1875"/><line style="stroke:#000000;stroke-width:1.0;" x1="1168.8267" x2="1168.8267" y1="12" y2="77.1875"/><line style="stroke:#000000;stroke-width:1.0;" x1="1210.0405" x2="1210.0405" y1="12" y2="77.1875"/><line style="stroke:#000000;stroke-width:1.0;" x1="1331.9595" x2="1331.9595" y1="12" y2="77.1875"/><!--cluster Browser--><g id="cluster_Browser"><rect fill="none" height="215" rx="2.5" ry="2.5" style="stroke:#181818;stroke-width:1.0;" width="414" x="1012.2899" y="97.1875"/><rect fill="none" height="10" style="stroke:#181818;stroke-width:1.0;" width="15" x="1406.2899" y="102.1875"/><rect fill="none" height="2" style="stroke:#181818;stroke-width:1.0;" width="4" x="1404.2899" y="104.1875"/><rect fill="none" height="2" style="stroke:#181818;stroke-width:1.0;" width="4" x="1404.2899" y="108.1875"/><text fill="#000000" font-family="sans-serif" font-size="14" font-weight="bold" lengthAdjust="spacing" textLength="64.8594" x="1186.8602" y="123.1826">Browser</text></g><!--cluster K8s--><g id="cluster_K8s"><path d="M120.2794,376.6721 C159.8908,295.4593 244.2385,284.0748 293.5446,366.4009 C356.2935,284.0706 413.3615,286.0878 462.832,379.2126 C501.4957,312.322 574.8746,315.6353 612.486,380.4087 C663.676,298.862 717.7855,291.2982 776.7025,372.6177 C822.9272,294.232 869.8709,307.7438 923.3798,364.7248 C978.8969,286.4205 1048.1821,299.2275 1090.1352,379.0308 C1136.2832,309.8042 1206.9381,286.6373 1255.4077,376.6209 C1302.6869,302.8179 1365.5384,297.6197 1425.229,361.289 C1473.8397,285.8757 1534.4034,301.9897 1569.8524,374.1847 C1623.3467,294.3007 1690.2532,300.047 1735.2638,382.8126 C1793.3084,281.9669 1856.9473,303.2412 1919.7453,377.8137 C1955.8444,291.0676 2034.3203,302.0742 2082.0561,365.2122 C2127.4121,308.42 2201.0991,312.3567 2231.9518,382.358 C2270.9576,316.395 2334.72,297.3088 2386.2899,368.1875 C2390.3471,367.2876 2391.8272,369.212 2391.4322,373.035 C2475.8289,423.6872 2474.0702,501.4666 2401.7535,560.7362 C2507.7862,614.3676 2486.9423,708.728 2403.2154,763.7261 C2492.5693,823.1238 2489.1373,884.3475 2415.7133,954.4139 C2490.963,1003.3107 2492.0405,1077.1018 2419.2718,1129.0154 C2492.9294,1192.1025 2489.1405,1272.223 2396.6662,1315.1318 C2476.1056,1371.9624 2474.404,1462.9886 2379.2899,1503.7375 C2382.14,1500.9427 2384.7148,1501.515 2386.2247,1505.177 C2353.7163,1591.158 2287.2605,1598.1808 2236.9032,1521.569 C2185.198,1593.6623 2126.8464,1598.8667 2069.4995,1528.1839 C2011.2443,1602.303 1951.3167,1602.035 1911.9576,1510.2412 C1872.7373,1589.2608 1793.3299,1605.0696 1741.4663,1523.6791 C1693.2472,1594.8925 1625.0545,1606.5712 1574.9473,1525.747 C1521.0662,1592.8951 1461.3554,1583.4903 1418.9763,1512.7378 C1373.7048,1602.2804 1302.0776,1595.0806 1245.305,1525.2725 C1198.1374,1590.6901 1152.3822,1590.822 1111.7159,1518.9466 C1063.9784,1597.3249 996.2465,1595.0104 949.5527,1517.8584 C892.9472,1602.4685 822.2881,1600.9831 777.8383,1506.2216 C726.2546,1592.0845 658.8892,1585.9122 599.3735,1515.2664 C556.8085,1596.0337 494.2663,1578.7913 450.0044,1517.0449 C411.4236,1589.8698 348.8874,1606.6896 299.9425,1527.2598 C225.0172,1606.8369 148.5307,1613.8529 104.2899,1496.7375 C118.7149,1487.2655 126.9671,1492.857 131.0817,1507.9723 C28.2541,1455.6029 19.5179,1389.6722 104.2323,1311.6536 C35.5255,1258.5337 15.1397,1193.2516 106.8515,1142.6174 C11.5302,1092.1075 6,1002.265 104.2613,949.1632 C7.9735,874.7817 10.3799,808.6166 115.0385,744.8339 C41.2704,680.5479 22.5693,617.8151 120.4926,558.5561 C32.3242,512.6597 14.9694,415.686 111.2899,361.1875 C121.3334,362.0216 125.1403,367.1853 120.2794,376.6721 " fill="none" style="stroke:#181818;stroke-width:1.0;"/><text fill="#000000" font-family="sans-serif" font-size="14" font-weight="bold" lengthAdjust="spacing" textLength="28.9229" x="1230.8285" y="379.1826">K8s</text></g><!--cluster Event Bus--><g id="cluster_Event Bus"><path d="M1639.7899,1121.5875 L2373.2899,1121.5875 C2378.2899,1121.5875 2378.2899,1295.6625 2378.2899,1295.6625 C2378.2899,1295.6625 2378.2899,1469.7375 2373.2899,1469.7375 L1639.7899,1469.7375 C1634.7899,1469.7375 1634.7899,1295.6625 1634.7899,1295.6625 C1634.7899,1295.6625 1634.7899,1121.5875 1639.7899,1121.5875 " fill="none" style="stroke:#181818;stroke-width:1.0;"/><path d="M2373.2899,1121.5875 C2368.2899,1121.5875 2368.2899,1295.6625 2368.2899,1295.6625 C2368.2899,1469.7375 2373.2899,1469.7375 2373.2899,1469.7375 " fill="none" style="stroke:#181818;stroke-width:1.0;"/><text fill="#000000" font-family="sans-serif" font-size="14" font-weight="bold" lengthAdjust="spacing" textLength="78.6885" x="1967.1957" y="1136.5826">Event Bus</text></g><!--cluster RPC1 Set--><g id="cluster_RPC1 Set"><rect fill="none" height="183.3" rx="2.5" ry="2.5" style="stroke:#181818;stroke-width:1.0;" width="477" x="120.2899" y="1001.4375"/><path d="M202.4911,1001.4375 L202.4911,1010.7344 L192.4911,1020.7344 L120.2899,1020.7344 " fill="none" style="stroke:#181818;stroke-width:1.0;"/><text fill="#000000" font-family="sans-serif" font-size="14" font-weight="bold" lengthAdjust="spacing" textLength="72.2012" x="123.2899" y="1015.4326">RPC1 Set</text></g><!--cluster RPC1 Pod 1--><g id="cluster_RPC1 Pod 1"><rect fill="none" height="116.3" rx="2.5" ry="2.5" style="stroke:#181818;stroke-width:1.0;" width="429" x="144.2899" y="1044.4375"/><rect fill="none" height="10" style="stroke:#181818;stroke-width:1.0;" width="15" x="553.2899" y="1049.4375"/><rect fill="none" height="2" style="stroke:#181818;stroke-width:1.0;" width="4" x="551.2899" y="1051.4375"/><rect fill="none" height="2" style="stroke:#181818;stroke-width:1.0;" width="4" x="551.2899" y="1055.4375"/><text fill="#000000" font-family="sans-serif" font-size="14" font-weight="bold" lengthAdjust="spacing" textLength="90.4463" x="313.5668" y="1070.4326">RPC1 Pod 1</text></g><!--cluster API Gateway--><g id="cluster_API Gateway"><rect fill="#FFD700" height="739.67" rx="2.5" ry="2.5" style="stroke:#181818;stroke-width:1.0;" width="995" x="613.2899" y="433.1875"/><rect fill="#FFD700" height="10" style="stroke:#181818;stroke-width:1.0;" width="15" x="1588.2899" y="438.1875"/><rect fill="#FFD700" height="2" style="stroke:#181818;stroke-width:1.0;" width="4" x="1586.2899" y="440.1875"/><rect fill="#FFD700" height="2" style="stroke:#181818;stroke-width:1.0;" width="4" x="1586.2899" y="444.1875"/><text fill="#000000" font-family="sans-serif" font-size="14" font-weight="bold" lengthAdjust="spacing" textLength="99.8115" x="1060.8841" y="459.1826">API Gateway</text></g><!--cluster DB--><g id="cluster_DB"><path d="M1624.2899,539.1875 C1624.2899,529.1875 1697.2899,529.1875 1697.2899,529.1875 C1697.2899,529.1875 1770.2899,529.1875 1770.2899,539.1875 L1770.2899,673.4775 C1770.2899,683.4775 1697.2899,683.4775 1697.2899,683.4775 C1697.2899,683.4775 1624.2899,683.4775 1624.2899,673.4775 L1624.2899,539.1875 " fill="none" style="stroke:#181818;stroke-width:1.0;"/><path d="M1624.2899,539.1875 C1624.2899,549.1875 1697.2899,549.1875 1697.2899,549.1875 C1697.2899,549.1875 1770.2899,549.1875 1770.2899,539.1875 " fill="none" style="stroke:#181818;stroke-width:1.0;"/><text fill="#000000" font-family="sans-serif" font-size="14" font-weight="bold" lengthAdjust="spacing" textLength="22.292" x="1686.1439" y="564.1826">DB</text></g><rect fill="#F1F1F1" height="121.7813" style="stroke:#181818;stroke-width:0.5;" width="327.0068" x="1044.7899" y="163.1875"/><text fill="#000000" font-family="sans-serif" font-size="14" lengthAdjust="spacing" textLength="85.4424" x="1165.5721" y="178.1826">RPCRequest</text><line style="stroke:#181818;stroke-width:1.0;" x1="1144.7167" x2="1144.7167" y1="183.4844" y2="284.9688"/><line style="stroke:#181818;stroke-width:1.0;" x1="1044.7899" x2="1371.7967" y1="183.4844" y2="183.4844"/><text fill="#000000" font-family="sans-serif" font-size="14" lengthAdjust="spacing" textLength="89.9268" x="1049.7899" y="198.4795">content-type</text><text fill="#000000" font-family="sans-serif" font-size="14" lengthAdjust="spacing" textLength="110.5645" x="1149.7167" y="198.4795">application/json</text><line style="stroke:#181818;stroke-width:1.0;" x1="1044.7899" x2="1371.7967" y1="203.7813" y2="203.7813"/><text fill="#000000" font-family="sans-serif" font-size="14" lengthAdjust="spacing" textLength="31.5342" x="1049.7899" y="218.7764">data</text><line style="stroke:#181818;stroke-width:1.0;" x1="1208.7821" x2="1208.7821" y1="203.7813" y2="284.9688"/><line style="stroke:#181818;stroke-width:1.0;" x1="1144.7167" x2="1371.7967" y1="203.7813" y2="203.7813"/><text fill="#000000" font-family="sans-serif" font-size="14" lengthAdjust="spacing" textLength="50.9619" x="1149.7167" y="218.7764">jsonrpc</text><text fill="#000000" font-family="sans-serif" font-size="14" lengthAdjust="spacing" textLength="22.2646" x="1213.7821" y="218.7764">2.0</text><line style="stroke:#181818;stroke-width:1.0;" x1="1144.7167" x2="1371.7967" y1="224.0781" y2="224.0781"/><text fill="#000000" font-family="sans-serif" font-size="14" lengthAdjust="spacing" textLength="12.7764" x="1149.7167" y="239.0732">id</text><text fill="#000000" font-family="sans-serif" font-size="14" lengthAdjust="spacing" textLength="8.9072" x="1213.7821" y="239.0732">1</text><line style="stroke:#181818;stroke-width:1.0;" x1="1144.7167" x2="1371.7967" y1="244.375" y2="244.375"/><text fill="#000000" font-family="sans-serif" font-size="14" lengthAdjust="spacing" textLength="54.0654" x="1149.7167" y="259.3701">method</text><text fill="#000000" font-family="sans-serif" font-size="14" lengthAdjust="spacing" textLength="51.8574" x="1213.7821" y="259.3701">classify</text><line style="stroke:#181818;stroke-width:1.0;" x1="1144.7167" x2="1371.7967" y1="264.6719" y2="264.6719"/><text fill="#000000" font-family="sans-serif" font-size="14" lengthAdjust="spacing" textLength="52.7324" x="1149.7167" y="279.667">params</text><line style="stroke:#181818;stroke-width:1.0;" x1="1262.3885" x2="1262.3885" y1="264.6719" y2="284.9688"/><line style="stroke:#181818;stroke-width:1.0;" x1="1208.7821" x2="1371.7967" y1="264.6719" y2="264.6719"/><text fill="#000000" font-family="sans-serif" font-size="14" lengthAdjust="spacing" textLength="43.6064" x="1213.7821" y="279.667">image</text><text fill="#000000" font-family="sans-serif" font-size="14" lengthAdjust="spacing" textLength="99.4082" x="1267.3885" y="279.667">imageOfApple</text><text fill="#000000" font-family="sans-serif" font-size="14" lengthAdjust="spacing" textLength="109.1699" x="1621.2049" y="1100.2857">publish-request</text><rect fill="#FFD700" height="12" style="stroke:#181818;stroke-width:1.5;" width="12" x="1669.7899" y="1115.5875"/><text fill="#000000" font-family="sans-serif" font-size="14" lengthAdjust="spacing" textLength="119.54" x="1777.5199" y="1100.2857">publish-response</text><rect fill="#008000" height="12" style="stroke:#181818;stroke-width:1.5;" width="12" x="1831.2899" y="1115.5875"/><text fill="#000000" font-family="sans-serif" font-size="14" lengthAdjust="spacing" textLength="67.1904" x="1619.1947" y="1488.7326">subscribe</text><rect fill="#F1F1F1" height="12" style="stroke:#181818;stroke-width:1.5;" width="12" x="1646.7899" y="1463.7375"/><rect fill="#F1F1F1" height="142.0781" style="stroke:#181818;stroke-width:0.5;" width="286.3955" x="1769.2899" y="1255.7375"/><text fill="#000000" font-family="sans-serif" font-size="14" lengthAdjust="spacing" textLength="57.4971" x="1883.7391" y="1270.7326">Request</text><line style="stroke:#181818;stroke-width:1.0;" x1="1884.4198" x2="1884.4198" y1="1276.0344" y2="1397.8156"/><line style="stroke:#181818;stroke-width:1.0;" x1="1769.2899" x2="2055.6854" y1="1276.0344" y2="1276.0344"/><text fill="#000000" font-family="sans-serif" font-size="14" lengthAdjust="spacing" textLength="89.9268" x="1774.2899" y="1291.0295">content-type</text><text fill="#000000" font-family="sans-serif" font-size="14" lengthAdjust="spacing" textLength="110.5645" x="1889.4198" y="1291.0295">application/json</text><line style="stroke:#181818;stroke-width:1.0;" x1="1769.2899" x2="2055.6854" y1="1296.3313" y2="1296.3313"/><text fill="#000000" font-family="sans-serif" font-size="14" lengthAdjust="spacing" textLength="105.1299" x="1774.2899" y="1311.3264">ce-specversion</text><text fill="#000000" font-family="sans-serif" font-size="14" lengthAdjust="spacing" textLength="22.2646" x="1889.4198" y="1311.3264">1.0</text><line style="stroke:#181818;stroke-width:1.0;" x1="1769.2899" x2="2055.6854" y1="1316.6281" y2="1316.6281"/><text fill="#000000" font-family="sans-serif" font-size="14" lengthAdjust="spacing" textLength="68.1611" x="1774.2899" y="1331.6232">ce-source</text><text fill="#000000" font-family="sans-serif" font-size="14" lengthAdjust="spacing" textLength="144.0332" x="1889.4198" y="1331.6232">http://curl-command</text><line style="stroke:#181818;stroke-width:1.0;" x1="1769.2899" x2="2055.6854" y1="1336.925" y2="1336.925"/><text fill="#000000" font-family="sans-serif" font-size="14" lengthAdjust="spacing" textLength="52.6367" x="1774.2899" y="1351.9201">ce-type</text><text fill="#000000" font-family="sans-serif" font-size="14" lengthAdjust="spacing" textLength="70.3691" x="1889.4198" y="1351.9201">curl.demo</text><line style="stroke:#181818;stroke-width:1.0;" x1="1769.2899" x2="2055.6854" y1="1357.2219" y2="1357.2219"/><text fill="#000000" font-family="sans-serif" font-size="14" lengthAdjust="spacing" textLength="34.1387" x="1774.2899" y="1372.217">ce-id</text><text fill="#000000" font-family="sans-serif" font-size="14" lengthAdjust="spacing" textLength="56.9365" x="1889.4198" y="1372.217">123-abc</text><line style="stroke:#181818;stroke-width:1.0;" x1="1769.2899" x2="2055.6854" y1="1377.5188" y2="1377.5188"/><text fill="#000000" font-family="sans-serif" font-size="14" lengthAdjust="spacing" textLength="31.5342" x="1774.2899" y="1392.5139">data</text><line style="stroke:#181818;stroke-width:1.0;" x1="1946.2772" x2="1946.2772" y1="1377.5188" y2="1397.8156"/><line style="stroke:#181818;stroke-width:1.0;" x1="1884.4198" x2="2055.6854" y1="1377.5188" y2="1377.5188"/><text fill="#000000" font-family="sans-serif" font-size="14" lengthAdjust="spacing" textLength="51.8574" x="1889.4198" y="1392.5139">classify</text><text fill="#000000" font-family="sans-serif" font-size="14" lengthAdjust="spacing" textLength="99.4082" x="1951.2772" y="1392.5139">imageOfApple</text><rect fill="#F1F1F1" height="182.6719" style="stroke:#181818;stroke-width:0.5;" width="247.1514" x="2106.7899" y="1235.7375"/><text fill="#000000" font-family="sans-serif" font-size="14" lengthAdjust="spacing" textLength="67.8672" x="2196.432" y="1250.7326">Response</text><line style="stroke:#181818;stroke-width:1.0;" x1="2221.9198" x2="2221.9198" y1="1256.0344" y2="1418.4094"/><line style="stroke:#181818;stroke-width:1.0;" x1="2106.7899" x2="2353.9413" y1="1256.0344" y2="1256.0344"/><text fill="#000000" font-family="sans-serif" font-size="14" lengthAdjust="spacing" textLength="89.9268" x="2111.7899" y="1271.0295">content-type</text><text fill="#000000" font-family="sans-serif" font-size="14" lengthAdjust="spacing" textLength="110.5645" x="2226.9198" y="1271.0295">application/json</text><line style="stroke:#181818;stroke-width:1.0;" x1="2106.7899" x2="2353.9413" y1="1276.3313" y2="1276.3313"/><text fill="#000000" font-family="sans-serif" font-size="14" lengthAdjust="spacing" textLength="105.1299" x="2111.7899" y="1291.3264">ce-specversion</text><text fill="#000000" font-family="sans-serif" font-size="14" lengthAdjust="spacing" textLength="22.2646" x="2226.9198" y="1291.3264">1.0</text><line style="stroke:#181818;stroke-width:1.0;" x1="2106.7899" x2="2353.9413" y1="1296.6281" y2="1296.6281"/><text fill="#000000" font-family="sans-serif" font-size="14" lengthAdjust="spacing" textLength="68.1611" x="2111.7899" y="1311.6232">ce-source</text><text fill="#000000" font-family="sans-serif" font-size="14" lengthAdjust="spacing" textLength="122.0215" x="2226.9198" y="1311.6232">RPC1 Response &#10067;</text><line style="stroke:#181818;stroke-width:1.0;" x1="2106.7899" x2="2353.9413" y1="1316.925" y2="1316.925"/><text fill="#000000" font-family="sans-serif" font-size="14" lengthAdjust="spacing" textLength="52.6367" x="2111.7899" y="1331.9201">ce-type</text><text fill="#000000" font-family="sans-serif" font-size="14" lengthAdjust="spacing" textLength="8.4014" x="2226.9198" y="1331.9201">&#10067;</text><line style="stroke:#181818;stroke-width:1.0;" x1="2106.7899" x2="2353.9413" y1="1337.2219" y2="1337.2219"/><text fill="#000000" font-family="sans-serif" font-size="14" lengthAdjust="spacing" textLength="34.1387" x="2111.7899" y="1352.217">ce-id</text><text fill="#000000" font-family="sans-serif" font-size="14" lengthAdjust="spacing" textLength="56.9365" x="2226.9198" y="1352.217">123-abc</text><line style="stroke:#181818;stroke-width:1.0;" x1="2106.7899" x2="2353.9413" y1="1357.5188" y2="1357.5188"/><text fill="#000000" font-family="sans-serif" font-size="14" lengthAdjust="spacing" textLength="31.5342" x="2111.7899" y="1372.5139">data</text><line style="stroke:#181818;stroke-width:1.0;" x1="2293.7919" x2="2293.7919" y1="1357.5188" y2="1418.4094"/><line style="stroke:#181818;stroke-width:1.0;" x1="2221.9198" x2="2353.9413" y1="1357.5188" y2="1357.5188"/><text fill="#000000" font-family="sans-serif" font-size="14" lengthAdjust="spacing" textLength="61.8721" x="2226.9198" y="1372.5139">category</text><text fill="#000000" font-family="sans-serif" font-size="14" lengthAdjust="spacing" textLength="28.9365" x="2298.7919" y="1372.5139">fruit</text><line style="stroke:#181818;stroke-width:1.0;" x1="2221.9198" x2="2353.9413" y1="1377.8156" y2="1377.8156"/><text fill="#000000" font-family="sans-serif" font-size="14" lengthAdjust="spacing" textLength="39.7031" x="2226.9198" y="1392.8107">name</text><text fill="#000000" font-family="sans-serif" font-size="14" lengthAdjust="spacing" textLength="38.8555" x="2298.7919" y="1392.8107">apple</text><line style="stroke:#181818;stroke-width:1.0;" x1="2221.9198" x2="2353.9413" y1="1398.1125" y2="1398.1125"/><text fill="#000000" font-family="sans-serif" font-size="14" lengthAdjust="spacing" textLength="45.6504" x="2226.9198" y="1413.1076">is-safe</text><text fill="#000000" font-family="sans-serif" font-size="14" lengthAdjust="spacing" textLength="24.1924" x="2298.7919" y="1413.1076">yes</text><!--entity RPC1 Request Trigger--><g id="elem_RPC1 Request Trigger"><rect fill="#F1F1F1" height="46.2969" rx="2.5" ry="2.5" style="stroke:#181818;stroke-width:0.5;" width="193.5898" x="160.4999" y="1098.4375"/><rect fill="#F1F1F1" height="10" style="stroke:#181818;stroke-width:0.5;" width="15" x="334.0897" y="1103.4375"/><rect fill="#F1F1F1" height="2" style="stroke:#181818;stroke-width:0.5;" width="4" x="332.0897" y="1105.4375"/><rect fill="#F1F1F1" height="2" style="stroke:#181818;stroke-width:0.5;" width="4" x="332.0897" y="1109.4375"/><text fill="#000000" font-family="sans-serif" font-size="14" lengthAdjust="spacing" textLength="153.5898" x="175.4999" y="1131.4326">RPC1 Request Trigger</text></g><!--entity RPC1 Local Server--><g id="elem_RPC1 Local Server"><rect fill="#F1F1F1" height="46.2969" rx="2.5" ry="2.5" style="stroke:#181818;stroke-width:0.5;" width="168.1943" x="389.1899" y="1098.4375"/><rect fill="#F1F1F1" height="10" style="stroke:#181818;stroke-width:0.5;" width="15" x="537.3842" y="1103.4375"/><rect fill="#F1F1F1" height="2" style="stroke:#181818;stroke-width:0.5;" width="4" x="535.3842" y="1105.4375"/><rect fill="#F1F1F1" height="2" style="stroke:#181818;stroke-width:0.5;" width="4" x="535.3842" y="1109.4375"/><text fill="#000000" font-family="sans-serif" font-size="14" lengthAdjust="spacing" textLength="128.1943" x="404.1899" y="1131.4326">RPC1 Local Server</text></g><text fill="#000000" font-family="sans-serif" font-size="14" lengthAdjust="spacing" textLength="64.5586" x="1384.5106" y="411.8857">HTTPS IO</text><rect fill="#F1F1F1" height="12" style="stroke:#181818;stroke-width:1.5;" width="12" x="1410.7899" y="427.1875"/><!--entity Auth--><g id="elem_Auth"><rect fill="#F1F1F1" height="46.2969" rx="2.5" ry="2.5" style="stroke:#181818;stroke-width:0.5;" width="72.8125" x="1382.8799" y="617.1875"/><rect fill="#F1F1F1" height="10" style="stroke:#181818;stroke-width:0.5;" width="15" x="1435.6924" y="622.1875"/><rect fill="#F1F1F1" height="2" style="stroke:#181818;stroke-width:0.5;" width="4" x="1433.6924" y="624.1875"/><rect fill="#F1F1F1" height="2" style="stroke:#181818;stroke-width:0.5;" width="4" x="1433.6924" y="628.1875"/><text fill="#000000" font-family="sans-serif" font-size="14" lengthAdjust="spacing" textLength="32.8125" x="1397.8799" y="650.1826">Auth</text></g><!--entity RPC Demux--><g id="elem_RPC Demux"><rect fill="#F1F1F1" height="46.2969" rx="2.5" ry="2.5" style="stroke:#181818;stroke-width:0.5;" width="122.585" x="1027.9999" y="750.1675"/><rect fill="#F1F1F1" height="10" style="stroke:#181818;stroke-width:0.5;" width="15" x="1130.5849" y="755.1675"/><rect fill="#F1F1F1" height="2" style="stroke:#181818;stroke-width:0.5;" width="4" x="1128.5849" y="757.1675"/><rect fill="#F1F1F1" height="2" style="stroke:#181818;stroke-width:0.5;" width="4" x="1128.5849" y="761.1675"/><text fill="#000000" font-family="sans-serif" font-size="14" lengthAdjust="spacing" textLength="82.585" x="1042.9999" y="783.1626">RPC Demux</text></g><!--entity RPC Route /api/rpc1/*--><g id="elem_RPC Route /api/rpc1/*"><rect fill="#F1F1F1" height="46.2969" rx="2.5" ry="2.5" style="stroke:#181818;stroke-width:0.5;" width="191.8672" x="1168.3599" y="877.1475"/><rect fill="#F1F1F1" height="10" style="stroke:#181818;stroke-width:0.5;" width="15" x="1340.2271" y="882.1475"/><rect fill="#F1F1F1" height="2" style="stroke:#181818;stroke-width:0.5;" width="4" x="1338.2271" y="884.1475"/><rect fill="#F1F1F1" height="2" style="stroke:#181818;stroke-width:0.5;" width="4" x="1338.2271" y="888.1475"/><text fill="#000000" font-family="sans-serif" font-size="14" lengthAdjust="spacing" textLength="151.8672" x="1183.3599" y="910.1426">RPC Route /api/rpc1/*</text></g><!--entity RPC Route /api/rpc../*--><g id="elem_RPC Route /api/rpc../*"><rect fill="#F1F1F1" height="46.2969" rx="2.5" ry="2.5" style="stroke:#181818;stroke-width:0.5;" width="191.8604" x="941.3599" y="877.1475"/><rect fill="#F1F1F1" height="10" style="stroke:#181818;stroke-width:0.5;" width="15" x="1113.2203" y="882.1475"/><rect fill="#F1F1F1" height="2" style="stroke:#181818;stroke-width:0.5;" width="4" x="1111.2203" y="884.1475"/><rect fill="#F1F1F1" height="2" style="stroke:#181818;stroke-width:0.5;" width="4" x="1111.2203" y="888.1475"/><text fill="#000000" font-family="sans-serif" font-size="14" lengthAdjust="spacing" textLength="151.8604" x="956.3599" y="910.1426">RPC Route /api/rpc../*</text></g><!--entity RPC Route /api/rpcn/*--><g id="elem_RPC Route /api/rpcn/*"><rect fill="#F1F1F1" height="46.2969" rx="2.5" ry="2.5" style="stroke:#181818;stroke-width:0.5;" width="191.833" x="1395.3699" y="877.1475"/><rect fill="#F1F1F1" height="10" style="stroke:#181818;stroke-width:0.5;" width="15" x="1567.2029" y="882.1475"/><rect fill="#F1F1F1" height="2" style="stroke:#181818;stroke-width:0.5;" width="4" x="1565.2029" y="884.1475"/><rect fill="#F1F1F1" height="2" style="stroke:#181818;stroke-width:0.5;" width="4" x="1565.2029" y="888.1475"/><text fill="#000000" font-family="sans-serif" font-size="14" lengthAdjust="spacing" textLength="151.833" x="1410.3699" y="910.1426">RPC Route /api/rpcn/*</text></g><!--entity RPC1 Response Trigger--><g id="elem_RPC1 Response Trigger"><rect fill="#F1F1F1" height="46.2969" rx="2.5" ry="2.5" style="stroke:#181818;stroke-width:0.5;" width="203.96" x="1147.3099" y="1098.4375"/><rect fill="#F1F1F1" height="10" style="stroke:#181818;stroke-width:0.5;" width="15" x="1331.2699" y="1103.4375"/><rect fill="#F1F1F1" height="2" style="stroke:#181818;stroke-width:0.5;" width="4" x="1329.2699" y="1105.4375"/><rect fill="#F1F1F1" height="2" style="stroke:#181818;stroke-width:0.5;" width="4" x="1329.2699" y="1109.4375"/><text fill="#000000" font-family="sans-serif" font-size="14" lengthAdjust="spacing" textLength="163.96" x="1162.3099" y="1131.4326">RPC1 Response Trigger</text></g><!--entity RPC.. Response Trigger--><g id="elem_RPC.. Response Trigger"><rect fill="#F1F1F1" height="46.2969" rx="2.5" ry="2.5" style="stroke:#181818;stroke-width:0.5;" width="203.9531" x="908.3099" y="1098.4375"/><rect fill="#F1F1F1" height="10" style="stroke:#181818;stroke-width:0.5;" width="15" x="1092.263" y="1103.4375"/><rect fill="#F1F1F1" height="2" style="stroke:#181818;stroke-width:0.5;" width="4" x="1090.263" y="1105.4375"/><rect fill="#F1F1F1" height="2" style="stroke:#181818;stroke-width:0.5;" width="4" x="1090.263" y="1109.4375"/><text fill="#000000" font-family="sans-serif" font-size="14" lengthAdjust="spacing" textLength="163.9531" x="923.3099" y="1131.4326">RPC.. Response Trigger</text></g><!--entity RPCN Response Trigger--><g id="elem_RPCN Response Trigger"><rect fill="#F1F1F1" height="46.2969" rx="2.5" ry="2.5" style="stroke:#181818;stroke-width:0.5;" width="205.5254" x="1386.5299" y="1098.4375"/><rect fill="#F1F1F1" height="10" style="stroke:#181818;stroke-width:0.5;" width="15" x="1572.0553" y="1103.4375"/><rect fill="#F1F1F1" height="2" style="stroke:#181818;stroke-width:0.5;" width="4" x="1570.0553" y="1105.4375"/><rect fill="#F1F1F1" height="2" style="stroke:#181818;stroke-width:0.5;" width="4" x="1570.0553" y="1109.4375"/><text fill="#000000" font-family="sans-serif" font-size="14" lengthAdjust="spacing" textLength="165.5254" x="1401.5299" y="1131.4326">RPCN Response Trigger</text></g><!--entity Response Mapper--><g id="elem_Response Mapper"><rect fill="#F1F1F1" height="46.2969" rx="2.5" ry="2.5" style="stroke:#181818;stroke-width:0.5;" width="165.1182" x="1408.7299" y="750.1675"/><rect fill="#F1F1F1" height="10" style="stroke:#181818;stroke-width:0.5;" width="15" x="1553.8481" y="755.1675"/><rect fill="#F1F1F1" height="2" style="stroke:#181818;stroke-width:0.5;" width="4" x="1551.8481" y="757.1675"/><rect fill="#F1F1F1" height="2" style="stroke:#181818;stroke-width:0.5;" width="4" x="1551.8481" y="761.1675"/><text fill="#000000" font-family="sans-serif" font-size="14" lengthAdjust="spacing" textLength="125.1182" x="1423.7299" y="783.1626">Response Mapper</text></g><g id="elem_GMN54"><path d="M1185.2399,730.4775 L1185.2399,769.3075 L1150.8899,773.3075 L1185.2399,777.3075 L1185.2399,816.1416 A0,0 0 0 0 1185.2399,816.1416 L1373.3356,816.1416 A0,0 0 0 0 1373.3356,816.1416 L1373.3356,740.4775 L1363.3356,730.4775 L1185.2399,730.4775 A0,0 0 0 0 1185.2399,730.4775 " fill="#FEFFDD" style="stroke:#181818;stroke-width:0.5;"/><path d="M1363.3356,730.4775 L1363.3356,740.4775 L1373.3356,740.4775 L1363.3356,730.4775 " fill="#FEFFDD" style="stroke:#181818;stroke-width:0.5;"/><text fill="#000000" font-family="sans-serif" font-size="13" lengthAdjust="spacing" textLength="118.4473" x="1191.2399" y="747.5444">Demuxing implicit</text><text fill="#000000" font-family="sans-serif" font-size="13" lengthAdjust="spacing" textLength="99.6582" x="1191.2399" y="762.6772">via Axum route</text><text fill="#000000" font-family="sans-serif" font-size="13" font-weight="bold" lengthAdjust="spacing" textLength="55.0405" x="1295.0304" y="762.6772">nesting</text><text fill="#000000" font-family="sans-serif" font-size="13" lengthAdjust="spacing" textLength="4.1323" x="1350.071" y="762.6772">.</text><text fill="#000000" font-family="sans-serif" font-size="13" lengthAdjust="spacing" textLength="4.1323" x="1191.2399" y="777.81">&#160;</text><text fill="#000000" font-family="sans-serif" font-size="13" lengthAdjust="spacing" textLength="76.2544" x="1191.2399" y="792.9428">Axum route</text><text fill="#000000" font-family="sans-serif" font-size="13" font-weight="bold" lengthAdjust="spacing" textLength="64.0098" x="1271.6266" y="792.9428">handlers</text><text fill="#000000" font-family="sans-serif" font-size="13" lengthAdjust="spacing" textLength="4.1323" x="1335.6364" y="792.9428">&#160;</text><text fill="#000000" font-family="sans-serif" font-size="13" lengthAdjust="spacing" textLength="21.3091" x="1191.2399" y="808.0756">are</text><text fill="#000000" font-family="sans-serif" font-size="13" font-weight="bold" lengthAdjust="spacing" textLength="126.7754" x="1216.6813" y="808.0756">event generators</text></g><g id="elem_GMN57"><path d="M629.7099,1086.3275 L629.7099,1156.8587 L872.8652,1156.8587 L872.8652,1096.3275 L862.8652,1086.3275 L629.7099,1086.3275 " fill="#FEFFDD" style="stroke:#181818;stroke-width:0.5;"/><path d="M862.8652,1086.3275 L862.8652,1096.3275 L872.8652,1096.3275 L862.8652,1086.3275 " fill="#FEFFDD" style="stroke:#181818;stroke-width:1.0;"/><text fill="#000000" font-family="sans-serif" font-size="13" lengthAdjust="spacing" textLength="74.1152" x="635.7099" y="1103.3944">Send Event</text><text fill="#000000" font-family="sans-serif" font-size="13" lengthAdjust="spacing" textLength="187.167" x="635.7099" y="1118.5272">&#10067; send placeholder response</text><text fill="#000000" font-family="sans-serif" font-size="13" lengthAdjust="spacing" textLength="222.1553" x="635.7099" y="1133.66">&#8986; Async wait for Response Trigger</text><text fill="#000000" font-family="sans-serif" font-size="13" lengthAdjust="spacing" textLength="114.918" x="635.7099" y="1148.7928">&#10004;&#65039; Send Response</text></g><!--entity Auth Tables--><g id="elem_Auth Tables"><path d="M1643.2499,613.1875 L1684.2499,613.1875 A3.75,3.75 0 0 1 1686.7499,615.6875 L1693.7499,634.1875 L1751.327,634.1875 A2.5,2.5 0 0 1 1753.827,636.6875 L1753.827,664.9844 A2.5,2.5 0 0 1 1751.327,667.4844 L1643.2499,667.4844 A2.5,2.5 0 0 1 1640.7499,664.9844 L1640.7499,615.6875 A2.5,2.5 0 0 1 1643.2499,613.1875 " fill="#F1F1F1" style="stroke:#181818;stroke-width:0.5;"/><line style="stroke:#181818;stroke-width:0.5;" x1="1640.7499" x2="1693.7499" y1="634.1875" y2="634.1875"/><text fill="#000000" font-family="sans-serif" font-size="14" lengthAdjust="spacing" textLength="83.0771" x="1650.7499" y="654.1826">Auth Tables</text></g><!--link subscribe to RPC1 Request Trigger--><g id="link_subscribe_RPC1 Request Trigger"><path d="M1647.0299,1468.5575 C1594.0799,1466.8575 1191.4699,1453.2475 1073.2899,1429.7375 C750.3199,1365.4775 669.4199,1332.5875 371.2899,1192.7375 C342.4699,1179.2175 316.8277,1163.4124 294.5877,1148.5424 " fill="none" id="subscribe-to-RPC1 Request Trigger" style="stroke:#FF0000;stroke-width:1.0;"/><polygon fill="#FF0000" points="289.5999,1145.2075,294.8583,1153.5351,293.7564,1147.9866,299.3049,1146.8847,289.5999,1145.2075" style="stroke:#FF0000;stroke-width:1.0;"/></g><!--link RPC1 Request Trigger to RPC1 Local Server--><g id="link_RPC1 Request Trigger_RPC1 Local Server"><path d="M354.3199,1121.5875 C365.7799,1121.5875 371.2499,1121.5875 382.7099,1121.5875 " fill="none" id="RPC1 Request Trigger-to-RPC1 Local Server" style="stroke:#FF0000;stroke-width:1.0;"/><polygon fill="#FF0000" points="388.7099,1121.5875,379.7099,1117.5875,383.7099,1121.5875,379.7099,1125.5875,388.7099,1121.5875" style="stroke:#FF0000;stroke-width:1.0;"/></g><!--link RPC1 Local Server to publish-response--><g id="link_RPC1 Local Server_publish-response"><path d="M490.2299,1098.1875 C513.8199,1067.8275 559.7399,1016.3175 613.2899,995.7975 C671.1799,973.6075 1672.9499,969.9175 1729.2899,995.7975 C1786.3099,1021.9975 1821.9323,1089.3889 1832.0323,1110.4189 " fill="none" id="RPC1 Local Server-to-publish-response" style="stroke:#008000;stroke-width:1.0;"/><polygon fill="#008000" points="1834.6299,1115.8275,1834.3393,1105.9829,1832.4653,1111.3204,1827.1278,1109.4463,1834.6299,1115.8275" style="stroke:#008000;stroke-width:1.0;"/><text fill="#000000" font-family="sans-serif" font-size="13" lengthAdjust="spacing" textLength="133.6372" x="1305.7899" y="974.0044">rpc1 response event</text></g><!--link Auth to RPC Demux--><g id="link_Auth_RPC Demux"><path d="M1401.4299,663.8075 C1391.8899,674.1175 1379.2399,685.3875 1365.2899,691.4775 C1343.6399,700.9375 1282.4399,694.7875 1259.2899,699.4775 C1216.9999,708.0575 1206.8899,713.3375 1167.2899,730.4775 C1154.3199,736.0975 1145.8648,740.2183 1133.6148,746.8583 " fill="none" id="Auth-to-RPC Demux" style="stroke:#FF0000;stroke-width:1.0;"/><polygon fill="#FF0000" points="1128.3399,749.7175,1138.1584,748.9453,1132.7357,747.3348,1134.3461,741.912,1128.3399,749.7175" style="stroke:#FF0000;stroke-width:1.0;"/></g><!--link Auth to HTTPS IO--><g id="link_Auth_HTTPS IO"><path d="M1412.2099,616.9575 C1403.6399,592.0275 1387.5399,551.2875 1365.2899,521.1875 C1362.1099,516.8775 1358.4799,518.0675 1356.2899,513.1875 C1350.4599,500.2075 1350.0399,493.9575 1356.2899,481.1875 C1367.9799,457.2875 1392.8274,444.4397 1405.5474,438.9097 " fill="none" id="Auth-to-HTTPS IO" style="stroke:#008000;stroke-width:1.0;"/><polygon fill="#008000" points="1411.0499,436.5175,1401.2014,436.4375,1406.4645,438.511,1404.391,443.7741,1411.0499,436.5175" style="stroke:#008000;stroke-width:1.0;"/><text fill="#000000" font-family="sans-serif" font-size="13" font-weight="bold" lengthAdjust="spacing" textLength="77.4414" x="1370.4581" y="494.2544">If not auth</text><text fill="#000000" font-family="sans-serif" font-size="13" lengthAdjust="spacing" textLength="4.1323" x="1447.8995" y="494.2544">&#160;</text><text fill="#000000" font-family="sans-serif" font-size="13" lengthAdjust="spacing" textLength="103.7778" x="1361.4222" y="509.3872">redirect to login</text></g><!--link HTTPS IO to Auth--><g id="link_HTTPS IO_Auth"><path d="M1422.4799,437.1075 C1433.9299,443.3675 1459.5099,459.2875 1469.2899,481.1875 C1475.0899,494.1675 1475.4499,500.3675 1469.2899,513.1875 C1466.8199,518.3175 1462.5599,516.5175 1459.2899,521.1875 C1438.6599,550.6175 1429.1331,585.6713 1424.1631,610.8213 " fill="none" id="HTTPS IO-to-Auth" style="stroke:#FF0000;stroke-width:1.0;"/><polygon fill="#FF0000" points="1422.9999,616.7075,1428.6688,608.6537,1423.9692,611.8024,1420.8206,607.1028,1422.9999,616.7075" style="stroke:#FF0000;stroke-width:1.0;"/></g><!--link RPC Demux to RPC Route /api/rpc1/*--><g id="link_RPC Demux_RPC Route /api/rpc1/*"><path d="M1120.9799,796.9475 C1152.6999,819.5975 1196.3173,850.7504 1227.9473,873.3404 " fill="none" id="RPC Demux-to-RPC Route /api/rpc1/*" style="stroke:#FF0000;stroke-width:1.0;"/><polygon fill="#FF0000" points="1232.8299,876.8275,1227.8307,868.3417,1228.7611,873.9216,1223.1812,874.8519,1232.8299,876.8275" style="stroke:#FF0000;stroke-width:1.0;"/></g><!--link RPC Demux to RPC Route /api/rpc../*--><g id="link_RPC Demux_RPC Route /api/rpc../*"><path d="M1079.8699,796.9475 C1070.4499,819.5975 1058.345,848.698 1048.945,871.288 " fill="none" id="RPC Demux-to-RPC Route /api/rpc../*" style="stroke:#FF0000;stroke-width:1.0;"/><polygon fill="#FF0000" points="1046.6399,876.8275,1053.7906,870.0549,1048.5608,872.2112,1046.4045,866.9815,1046.6399,876.8275" style="stroke:#FF0000;stroke-width:1.0;"/></g><!--link RPC Demux to RPC Route /api/rpcn/*--><g id="link_RPC Demux_RPC Route /api/rpcn/*"><path d="M1126.8999,796.8475 C1139.4399,803.7175 1153.6899,810.8375 1167.2899,816.1475 C1241.6899,845.1475 1323.7623,865.7339 1389.2423,879.7239 " fill="none" id="RPC Demux-to-RPC Route /api/rpcn/*" style="stroke:#FF0000;stroke-width:1.0;"/><polygon fill="#FF0000" points="1395.1099,880.9775,1387.1443,875.1853,1390.2203,879.9328,1385.4728,883.0088,1395.1099,880.9775" style="stroke:#FF0000;stroke-width:1.0;"/></g><!--link RPC Route /api/rpc1/* to publish-request--><g id="link_RPC Route /api/rpc1/*_publish-request"><path d="M1360.6299,920.3775 C1366.5999,921.4475 1372.5199,922.4775 1378.2899,923.4375 C1425.4299,931.3375 1552.4199,925.6175 1591.2899,953.4375 C1650.7799,996.0275 1669.9294,1086.9684 1673.9494,1109.7984 " fill="none" id="RPC Route /api/rpc1/*-to-publish-request" style="stroke:#FF0000;stroke-width:1.0;"/><polygon fill="#FF0000" points="1674.9899,1115.7075,1677.3685,1106.1502,1674.1228,1110.7833,1669.4898,1107.5375,1674.9899,1115.7075" style="stroke:#FF0000;stroke-width:1.0;"/><text fill="#000000" font-family="sans-serif" font-size="13" lengthAdjust="spacing" textLength="46.5664" x="1640.0923" y="966.5044">Publish</text><text fill="#000000" font-family="sans-serif" font-size="13" font-weight="bold" lengthAdjust="spacing" textLength="78.5713" x="1624.0899" y="981.6372">rpc1 event</text></g><!--link subscribe to RPC1 Response Trigger--><g id="link_subscribe_RPC1 Response Trigger"><path d="M1646.9899,1468.3175 C1626.9199,1466.6175 1559.1199,1458.8975 1513.2899,1429.7375 C1391.6799,1352.3475 1298.5942,1207.1178 1265.1142,1150.2578 " fill="none" id="subscribe-to-RPC1 Response Trigger" style="stroke:#008000;stroke-width:1.0;"/><polygon fill="#008000" points="1262.0699,1145.0875,1263.1896,1154.8725,1264.6069,1149.3961,1270.0833,1150.8134,1262.0699,1145.0875" style="stroke:#008000;stroke-width:1.0;"/></g><!--reverse link RPC Route /api/rpc1/* to RPC1 Response Trigger--><g id="link_RPC Route /api/rpc1/*_RPC1 Response Trigger"><path d="M1262.3307,929.9235 C1259.4507,972.0535 1253.7099,1056.0275 1250.8299,1098.0675 " fill="none" id="RPC Route /api/rpc1/*-backto-RPC1 Response Trigger" style="stroke:#008000;stroke-width:1.0;"/><polygon fill="#008000" points="1262.7399,923.9375,1258.1354,932.6437,1262.3989,928.9259,1266.1168,933.1893,1262.7399,923.9375" style="stroke:#008000;stroke-width:1.0;"/></g><!--link RPC Route /api/rpc../* to publish-request--><g id="link_RPC Route /api/rpc../*_publish-request"><path d="M1133.5899,920.6375 C1139.5699,921.6475 1145.5099,922.5875 1151.2899,923.4375 C1282.5399,942.7775 1322.2599,911.9775 1448.2899,953.4375 C1474.7899,962.1575 1475.6799,977.0575 1502.2899,985.4375 C1524.8199,992.5375 1588.5199,980.5175 1608.2899,993.4375 C1654.5199,1023.6675 1670.1125,1090.5744 1673.8125,1109.9144 " fill="none" id="RPC Route /api/rpc../*-to-publish-request" style="stroke:#FF0000;stroke-width:1.0;"/><polygon fill="#FF0000" points="1674.9399,1115.8075,1677.1775,1106.2162,1674.0004,1110.8966,1669.32,1107.7194,1674.9399,1115.8075" style="stroke:#FF0000;stroke-width:1.0;"/><text fill="#000000" font-family="sans-serif" font-size="13" lengthAdjust="spacing" textLength="46.5664" x="1519.7081" y="966.5044">Publish</text><text fill="#000000" font-family="sans-serif" font-size="13" font-weight="bold" lengthAdjust="spacing" textLength="79.4028" x="1503.2899" y="981.6372">rpc.. event</text></g><!--link subscribe to RPC.. Response Trigger--><g id="link_subscribe_RPC.. Response Trigger"><path d="M1646.9399,1468.6175 C1606.5799,1467.7275 1368.9799,1461.1875 1305.2899,1429.7375 C1168.3899,1362.1375 1063.5758,1208.8381 1026.9358,1150.1081 " fill="none" id="subscribe-to-RPC.. Response Trigger" style="stroke:#008000;stroke-width:1.0;"/><polygon fill="#008000" points="1023.7599,1145.0175,1025.13,1154.7706,1026.4065,1149.2596,1031.9174,1150.5361,1023.7599,1145.0175" style="stroke:#008000;stroke-width:1.0;"/></g><!--reverse link RPC Route /api/rpc../* to RPC.. Response Trigger--><g id="link_RPC Route /api/rpc../*_RPC.. Response Trigger"><path d="M1033.7663,929.8925 C1028.5763,972.0225 1018.2399,1056.0275 1013.0599,1098.0675 " fill="none" id="RPC Route /api/rpc../*-backto-RPC.. Response Trigger" style="stroke:#008000;stroke-width:1.0;"/><polygon fill="#008000" points="1034.4999,923.9375,1029.4295,932.3809,1033.8886,928.9,1037.3695,933.359,1034.4999,923.9375" style="stroke:#008000;stroke-width:1.0;"/></g><!--link RPC Route /api/rpcn/* to publish-request--><g id="link_RPC Route /api/rpcn/*_publish-request"><path d="M1587.5099,912.2575 C1639.1999,920.3375 1695.4999,933.4675 1711.2899,953.4375 C1752.5099,1005.5675 1697.8783,1089.5515 1682.7183,1110.9515 " fill="none" id="RPC Route /api/rpcn/*-to-publish-request" style="stroke:#FF0000;stroke-width:1.0;"/><polygon fill="#FF0000" points="1679.2499,1115.8475,1687.7164,1110.8158,1682.1402,1111.7675,1681.1885,1106.1913,1679.2499,1115.8475" style="stroke:#FF0000;stroke-width:1.0;"/><text fill="#000000" font-family="sans-serif" font-size="13" lengthAdjust="spacing" textLength="46.5664" x="1741.9171" y="966.5044">Publish</text><text fill="#000000" font-family="sans-serif" font-size="13" font-weight="bold" lengthAdjust="spacing" textLength="78.7808" x="1725.8099" y="981.6372">rpcn event</text></g><!--link subscribe to RPCN Response Trigger--><g id="link_subscribe_RPCN Response Trigger"><path d="M1647.1799,1463.9475 C1639.3799,1457.0475 1625.2299,1443.6175 1616.2899,1429.7375 C1553.3299,1331.9875 1512.468,1203.591 1497.218,1150.901 " fill="none" id="subscribe-to-RPCN Response Trigger" style="stroke:#008000;stroke-width:1.0;"/><polygon fill="#008000" points="1495.5499,1145.1375,1494.2098,1154.8948,1496.94,1149.9404,1501.8944,1152.6706,1495.5499,1145.1375" style="stroke:#008000;stroke-width:1.0;"/></g><!--reverse link RPC Route /api/rpcn/* to RPCN Response Trigger--><g id="link_RPC Route /api/rpcn/*_RPCN Response Trigger"><path d="M1479.6227,929.329 C1476.2427,938.389 1474.9699,943.4275 1473.2899,953.4375 C1464.6799,1004.7575 1475.8599,1065.7775 1483.4099,1098.0175 " fill="none" id="RPC Route /api/rpcn/*-backto-RPCN Response Trigger" style="stroke:#008000;stroke-width:1.0;"/><polygon fill="#008000" points="1481.7199,923.7075,1474.8264,930.7417,1479.9722,928.3921,1482.3218,933.538,1481.7199,923.7075" style="stroke:#008000;stroke-width:1.0;"/></g><!--reverse link Response Mapper to RPC Route /api/rpc1/*--><g id="link_Response Mapper_RPC Route /api/rpc1/*"><path d="M1444.9238,799.8413 C1403.7838,822.4913 1346.1199,854.2375 1305.0899,876.8275 " fill="none" id="Response Mapper-backto-RPC Route /api/rpc1/*" style="stroke:#008000;stroke-width:1.0;"/><polygon fill="#008000" points="1450.1799,796.9475,1440.3666,797.7841,1445.7999,799.359,1444.225,804.7922,1450.1799,796.9475" style="stroke:#008000;stroke-width:1.0;"/></g><!--reverse link Response Mapper to RPC Route /api/rpc../*--><g id="link_Response Mapper_RPC Route /api/rpc../*"><path d="M1436.2772,799.2626 C1420.3572,806.0226 1408.0299,810.7175 1391.2899,816.1475 C1344.0699,831.4475 1221.2899,859.3275 1133.5999,878.5575 " fill="none" id="Response Mapper-backto-RPC Route /api/rpc../*" style="stroke:#008000;stroke-width:1.0;"/><polygon fill="#008000" points="1441.7999,796.9175,1431.9524,796.7533,1437.1976,798.8717,1435.0792,804.1169,1441.7999,796.9175" style="stroke:#008000;stroke-width:1.0;"/></g><!--reverse link Response Mapper to RPC Route /api/rpcn/*--><g id="link_Response Mapper_RPC Route /api/rpcn/*"><path d="M1491.2899,802.9475 C1491.2899,825.5975 1491.2899,854.2375 1491.2899,876.8275 " fill="none" id="Response Mapper-backto-RPC Route /api/rpcn/*" style="stroke:#008000;stroke-width:1.0;"/><polygon fill="#008000" points="1491.2899,796.9475,1487.2899,805.9475,1491.2899,801.9475,1495.2899,805.9475,1491.2899,796.9475" style="stroke:#008000;stroke-width:1.0;"/></g><!--reverse link HTTPS IO to Response Mapper--><g id="link_HTTPS IO_Response Mapper"><path d="M1428.2896,438.748 C1441.4796,444.168 1467.4799,456.9275 1480.2899,481.1875 C1527.6299,570.8675 1507.5599,698.6475 1496.6399,749.8375 " fill="none" id="HTTPS IO-backto-Response Mapper" style="stroke:#008000;stroke-width:1.0;"/><polygon fill="#008000" points="1422.7399,436.4675,1429.5442,443.588,1427.3647,438.3679,1432.5848,436.1884,1422.7399,436.4675" style="stroke:#008000;stroke-width:1.0;"/></g><!--link RPC Route /api/rpc../* to GMN57--><g id="link_RPC Route /api/rpc../*_GMN57"><path d="M997.6299,923.7675 C967.5499,941.4275 925.6499,967.3175 891.2899,993.4375 C853.3899,1022.2575 813.5099,1059.2275 786.0499,1085.8575 " fill="none" id="RPC Route /api/rpc../*-GMN57" style="stroke:#181818;stroke-width:1.0;stroke-dasharray:7.0,7.0;"/></g><!--link Browser to HTTPS IO--><g id="link_Browser_HTTPS IO"><path d="M1416.5019,313.1314 C1416.5028,313.4809 1416.5036,313.8306 1416.5045,314.1806 C1416.5062,314.8805 1416.5079,315.5812 1416.5096,316.2828 C1416.513,317.6859 1416.5165,319.092 1416.5199,320.5 C1416.6299,365.5575 1416.7307,406.6225 1416.7657,421.4375 " fill="none" id="Browser-to-HTTPS IO" style="stroke:#FF0000;stroke-width:1.0;"/><polygon fill="#FF0000" points="1416.7799,427.4375,1420.7586,418.4281,1416.7681,422.4375,1412.7586,418.447,1416.7799,427.4375" style="stroke:#FF0000;stroke-width:1.0;"/></g><!--link HTTPS IO to Browser--><g id="link_HTTPS IO_Browser"><path d="M1416.7799,427.4375 C1416.7449,412.6225 1416.6299,365.5575 1416.5199,320.5 C1416.5165,319.092 1416.513,317.6859 1416.5096,316.2828 C1416.5079,315.5812 1416.5062,314.8805 1416.5045,314.1806 C1416.5036,313.8306 1416.5174,319.4808 1416.5166,319.1314 " fill="none" id="HTTPS IO-to-Browser" style="stroke:#008000;stroke-width:1.0;"/><polygon fill="#008000" points="1416.5019,313.1314,1412.5239,322.1411,1416.5141,318.1314,1420.5239,322.1216,1416.5019,313.1314" style="stroke:#008000;stroke-width:1.0;"/></g><!--link Auth to Auth Tables--><g id="link_Auth_Auth Tables"><path d="M1455.9399,640.3275 C1517.3799,640.3275 1572.8099,640.3275 1634.2499,640.3275 " fill="none" id="Auth-to-Auth Tables" style="stroke:#181818;stroke-width:1.0;"/><polygon fill="#181818" points="1640.2499,640.3275,1631.2499,636.3275,1635.2499,640.3275,1631.2499,644.3275,1640.2499,640.3275" style="stroke:#181818;stroke-width:1.0;"/></g><!--SRC=[lLVDZjis43wldsB0t8J8hjDBiIWMS7wGBjecXjUtJG-qHDai958bgTqOsNs30Zsqfw9zZpvFNo2la27rGqcMbCqUeeCXSRvlE7-SeGqtAGE06S3T2vbATGVROyxWpYvy_-IrJEEBErWLvi24uH4rBAv46sOb6_PRmRI1d9f3pL6C2IVIkHIQLJ8cOZ1sjzaiaXbAK24yL_9MCmKVa0hmgvO2DkiNjT9ojNv898L1KcZGG78EXEPvQatYKYmibJo5aQUh9wQ64ZZlgNSYgqRbaTN-RFuDUJexEpjp0XxZsj9_PymSf5qZKKgrvicn1SwfefacTeSp-n2UqRqpsRsyJLPeEICr_dxItFkPVxl7sAMoY87y-9qcyA41knyCMi60lBfnaIqieE7cKXakqBHYbt9z25KPOW8knHEmCeSMPzFQ0Sh2W2vsEb9ynsOdnfVPV6mgUtWMwfn5DqnfX5Z6qgNd12GB5JcD1sFoyyKYAbGQOhrbLCG3-7f_2vl7B9C369TwidpsRKXtKLy-KKjDOPpaVIoz_T1Lv-UhnmwFuD9l__-_Vqv4RbZwi9XDrdsf2XlENggZXPD45Tpqb3cKe1bp2EhYEu3WEjGqSGOVcHxDG6D4bOi4pp6hud753F4cDnpVoqhOMiQm95tVEjir9mP2V2xWkefsUKwsYk_tJFq2jhzsU2EuHiDFCg8fMgbk9kXT4797Jpg64nlX4kfrOBQjT4FbmzLypNenMQqluJKcyPOUgrxJQqf0VjXkrrTm-PRu-h-s0mVjgvo3bomhtlUSQc6y2czy45mc8AG1Yh0WW7S2NOcvOf418o6LU-wxMNkJPjCDzZS62vhpXOt48kWRy7dIVFuObcX8NTQ0GLR3K5D7yZcio-Lt8WXSAbq6CHIpWLBqTLYbsnTYj_6FmS8YdmfSgMJIeJ9OORSe9noQpskFnXr2p8Cy6iIDkbIbjV9fmYNnXJaId_VepSCSUlCb_eYMEzsJF5bxbRfwdv-n-uvOCvpfH_F50-WjVXzHCa-QXgTWss20KJiOa4dxnFgEwhwvs0FFxFJblZF23QUmUbzae9pHGI0mtmWDWdbh4lYt3lQ0zvGK9tNxc09LLkHA0_PCC4MDj906OU_MrkYU2pjfZCmQ7mQIuFUuiZfUTNgydVoWxNgUqeWTi7dZLRqU22tOxt_3IXz51BUK6qYaEYc-5lYVlpx-zqUvtQQlgl73JsFtQcyCEuhgoCldxLjjKff4x2Y0BTsbh7Ff7HXIzWfzNVthE1qUjkUslbr_Ri1LbVJbvHXor7eaNNGj-WG0]--></g></svg>